<svg xmlns="http://www.w3.org/2000/svg" xmlns:xlink="http://www.w3.org/1999/xlink" viewBox="0 0 592 300"><defs><style>.cls-1,.cls-11,.cls-17,.cls-19,.cls-29,.cls-30,.cls-48,.cls-52,.cls-65{fill:none;}.cls-2,.cls-51{fill:#fdd663;}.cls-3{fill:#f6aea9;}.cls-4{fill:url(#linear-gradient);}.cls-5{fill:#fde293;}.cls-6{fill:#e8f0fe;}.cls-63,.cls-7{fill:#ee675c;}.cls-7{clip-rule:evenodd;}.cls-8{fill:#f1f3f4;}.cls-9{fill:url(#linear-gradient-2);}.cls-10,.cls-45{fill:#fbbc04;}.cls-11{stroke:#f1f3f4;}.cls-11,.cls-12,.cls-17,.cls-48,.cls-52,.cls-53{stroke-linecap:round;stroke-linejoin:round;}.cls-12{fill:#fff;}.cls-12,.cls-17,.cls-19{stroke:#e8eaed;}.cls-13,.cls-20{fill:#e8eaed;}.cls-14{clip-path:url(#clip-path);}.cls-15{clip-path:url(#clip-path-2);}.cls-16{clip-path:url(#clip-path-3);}.cls-18{clip-path:url(#clip-path-4);}.cls-19,.cls-29,.cls-30,.cls-56,.cls-58,.cls-65{stroke-miterlimit:10;}.cls-19{stroke-width:4px;}.cls-20,.cls-60,.cls-61,.cls-62,.cls-63{fill-rule:evenodd;}.cls-21,.cls-58{fill:#dadce0;}.cls-22{clip-path:url(#clip-path-5);}.cls-23{fill:#f28b82;}.cls-23,.cls-34{opacity:0.5;}.cls-24{clip-path:url(#clip-path-6);}.cls-25{fill:#bdc1c6;}.cls-26{clip-path:url(#clip-path-7);}.cls-27{clip-path:url(#clip-path-8);}.cls-28,.cls-32,.cls-39{fill:#fcc934;}.cls-28{opacity:0.9;}.cls-29,.cls-30{stroke:#f9ab00;}.cls-30{opacity:0;}.cls-31{clip-path:url(#clip-path-9);}.cls-32,.cls-45,.cls-47,.cls-51,.cls-59{opacity:0.6;}.cls-33{clip-path:url(#clip-path-10);}.cls-34,.cls-43,.cls-47{fill:#f29900;}.cls-35{fill:url(#linear-gradient-4);}.cls-36{fill:url(#linear-gradient-5);}.cls-37{fill:#80868b;}.cls-38{clip-path:url(#clip-path-11);}.cls-40{clip-path:url(#clip-path-12);}.cls-41{clip-path:url(#clip-path-13);}.cls-42{fill:url(#linear-gradient-6);}.cls-43{opacity:0.3;}.cls-44{clip-path:url(#clip-path-14);}.cls-46{clip-path:url(#clip-path-15);}.cls-48{stroke:#5f6368;}.cls-49{clip-path:url(#clip-path-16);}.cls-50{clip-path:url(#clip-path-17);}.cls-52,.cls-53{stroke:#3c4043;}.cls-53{fill:#3c4043;}.cls-54{fill:#d2e3fc;}.cls-55{clip-path:url(#clip-path-18);}.cls-56,.cls-57,.cls-59{fill:#aecbfa;}.cls-56{stroke:#aecbfa;}.cls-56,.cls-66{opacity:0.6;}.cls-58{stroke:#fff;}.cls-60{fill:#ceead6;}.cls-61{fill:#feefc3;}.cls-62{fill:#a8dab5;}.cls-64{clip-path:url(#clip-path-19);}.cls-65{stroke:#f28b82;}.cls-66{fill:#ea4335;}.cls-67{clip-path:url(#clip-path-20);}.cls-68{fill:#f8f9fa;}</style><linearGradient id="linear-gradient" x1="329.64" y1="163.21" x2="297.28" y2="199.74" gradientTransform="translate(106.35 -118.5) rotate(25.88)" gradientUnits="userSpaceOnUse"><stop offset="0.41" stop-color="#fbbc04"/><stop offset="1" stop-color="#fdd663"/></linearGradient><linearGradient id="linear-gradient-2" x1="328.22" y1="163.06" x2="325.03" y2="328.69" gradientUnits="userSpaceOnUse"><stop offset="0" stop-color="#fdd663"/><stop offset="0.34" stop-color="#fdd662"/><stop offset="1" stop-color="#fcc934"/></linearGradient><clipPath id="clip-path"><rect class="cls-1" x="74.84" y="253.23" width="107.9" height="26.97"/></clipPath><clipPath id="clip-path-2"><rect class="cls-1" x="74.84" y="199.28" width="53.95" height="26.97"/></clipPath><clipPath id="clip-path-3"><rect class="cls-1" x="74.84" y="226.26" width="80.92" height="26.97"/></clipPath><clipPath id="clip-path-4"><rect class="cls-1" x="74.84" y="172.31" width="28.62" height="26.97"/></clipPath><clipPath id="clip-path-5"><path class="cls-3" d="M390.12,274.6c-3.36-2.73-2.67-7.41.8-12.84,3.84-6,9-9.23,11.87-6.57,2.7,2.48-.81,7.6-2.78,11.65C397.8,271.36,393.9,277.66,390.12,274.6Z"/></clipPath><clipPath id="clip-path-6"><path class="cls-1" d="M251.3,148.34c0-51.22,47.25-104.83,91.16-104.83-7.84-1.71-20.54-2.62-28.91-2.62C252.4,40.89,202.83,89,202.83,148.34S252.4,255.78,313.55,255.78a139.09,139.09,0,0,0,26.89-2.61C280.16,245.74,251.3,193.66,251.3,148.34Z"/></clipPath><clipPath id="clip-path-7"><path class="cls-1" d="M363.35,40.83a101.59,101.59,0,0,0-24.93,3.1C384,55.45,417.74,97.82,417.74,148.34S384,241.22,338.42,252.75a101.59,101.59,0,0,0,24.93,3.1c43.94,0,105.07-39,105.07-107.51C468.42,81.66,407.29,40.83,363.35,40.83Z"/></clipPath><clipPath id="clip-path-8"><path class="cls-9" d="M409.83,226.62c-1.05-12.25-8.85-24.91-16.13-34-15.8-19.69-39.59-28.41-62.9-28.41s-47.3,7.32-67.41,20.39c-11.79,7.66-20.46,26.6-19.58,52h0c.25,7,11.29,14.76,21.56,15.76,2.29.22,4.58.42,6.89.58q6.9.49,13.86.65,3.47.09,6.95.1c9.29,0,19.55.18,28.93.1,17.49-.15,31.85-.29,38-.43a163,163,0,0,0,17.7-1.15c6.42,7.57,15.44,11.38,19.95,10.16,9.13-2.46,5.95-11.63,9.68-19C410,238.07,410.37,232.9,409.83,226.62Z"/></clipPath><clipPath id="clip-path-9"><path class="cls-2" d="M397.61,262.36c-9.13,2.47-37.52-16.09-24.53-44.37,8.29-18.06,31.58-10.65,34.9,1.67s3.14,16.11-.69,23.68C403.56,250.73,406.74,259.9,397.61,262.36Z"/></clipPath><clipPath id="clip-path-10"><path class="cls-10" d="M268.45,180.16c-3.63-1.77-12-5.81-15.91-7.64-6.39-3-11.76-5.39-17.28-3-4.21,1.79-5.4,9.85,1.66,18.07C246.08,198.22,268.45,180.16,268.45,180.16Z"/></clipPath><linearGradient id="linear-gradient-4" x1="310.74" y1="41.04" x2="359.96" y2="41.04" gradientUnits="userSpaceOnUse"><stop offset="0" stop-color="#80868b"/><stop offset="0.23" stop-color="#868c91"/><stop offset="0.54" stop-color="#989da2"/><stop offset="0.91" stop-color="#b5b9be"/><stop offset="0.99" stop-color="#bdc1c6"/></linearGradient><linearGradient id="linear-gradient-5" x1="310.74" y1="255.64" x2="359.96" y2="255.64" gradientUnits="userSpaceOnUse"><stop offset="0" stop-color="#80868b"/><stop offset="0.77" stop-color="#afb3b8"/><stop offset="0.99" stop-color="#bdc1c6"/></linearGradient><clipPath id="clip-path-11"><path class="cls-2" d="M251.9,234.29c4,12.78,1.86,31.31-4.47,31.48s-14.12-13-19.65-25.17c-9.13-20,12-32.81,18.25-33.4C253,206.56,251.9,234.29,251.9,234.29Z"/></clipPath><clipPath id="clip-path-12"><path class="cls-3" d="M257.76,269.23H230s2.51-9,4.07-13.91c2.1-6.53,18.43-5.25,21.57-2.08S257.76,269.23,257.76,269.23Z"/></clipPath><clipPath id="clip-path-13"><path class="cls-2" d="M314.87,241.84c-6.29,9.34-15.6,31.16-9.13,33.48,9,3.22,20.41-18.07,33.77-24,10.33-4.55,6.7-28.17-5-25.79C326.51,227.17,321.15,232.5,314.87,241.84Z"/></clipPath><linearGradient id="linear-gradient-6" x1="321.26" y1="216.88" x2="215.38" y2="203.87" gradientUnits="userSpaceOnUse"><stop offset="0" stop-color="#fdd663"/><stop offset="0.33" stop-color="#fcc934"/><stop offset="0.33" stop-color="#fcc934"/><stop offset="0.54" stop-color="#fbbc04"/><stop offset="0.82" stop-color="#fcc934"/><stop offset="0.99" stop-color="#fde293"/></linearGradient><clipPath id="clip-path-14"><path class="cls-1" d="M320,209.19c5,12.3-1.24,28.13-14.79,35.52-9.24,5-22,7-34.58,7-23.1,0-35.73-13.86-37.38-20.64-1.35-5.57,1.41-14,6.2-18.56,1.59-12,4.73-36.76,36.57-40.93,16.65-2.18,30.77,3.49,39.06,14.39C319,191.1,316.91,201.59,320,209.19Z"/></clipPath><clipPath id="clip-path-15"><path class="cls-1" d="M239.47,212.49c1.59-12,4.73-36.76,36.57-40.93,14.56-1.91,27.19,2.19,35.68,10.54C317.52,187.81,234.68,217.08,239.47,212.49Z"/></clipPath><clipPath id="clip-path-16"><path class="cls-4" d="M292.69,176c1.57-.41,13.33-4.87,22.58-6.92,6-1.33,9.12.11,11.4,3.1,2.6,3.41-1.71,14.25-13.86,20.41S292.69,176,292.69,176Z"/></clipPath><clipPath id="clip-path-17"><path class="cls-5" d="M305.29,224.59c-2.21-2.72-5.09-6-9.75-7.6a30.79,30.79,0,0,0-13.13-2,32.1,32.1,0,0,0-10.1,2.37c-.56.24-1.18.54-1.83.89a30.3,30.3,0,0,1-4.68-7.06.8.8,0,0,0-1.45.07,69.06,69.06,0,0,1-4.54,9.21,14.06,14.06,0,0,0-3.8-1.83,13.85,13.85,0,0,0-8.46.27c-13.09,6-15,12.62-7.6,21.26,6,7,17.72,16.07,35.26,12.73C286,250.87,315.69,241,305.29,224.59Z"/></clipPath><clipPath id="clip-path-18"><rect class="cls-6" x="485.97" y="48.73" width="59.83" height="138.84" rx="29.92"/></clipPath><clipPath id="clip-path-19"><polygon class="cls-7" points="426.99 258.5 539.75 258.5 527.16 280.61 439.58 280.61 426.99 258.5"/></clipPath><clipPath id="clip-path-20"><path class="cls-8" d="M55.91,280.62a35.22,35.22,0,0,1,70.43,0Z"/></clipPath></defs><g id="Layer_5" data-name="Layer 5"><line class="cls-11" x1="124.88" y1="88.08" x2="211.72" y2="88.08"/><line class="cls-11" x1="40" y1="152.08" x2="277.64" y2="152.08"/><line class="cls-11" x1="40" y1="216.08" x2="296" y2="216.08"/><line class="cls-11" x1="248" y1="251.85" x2="248" y2="119"/><line class="cls-11" x1="296" y1="209.19" x2="296" y2="280.08"/><polyline class="cls-11" points="200 115.31 200 280.08 152 280.08 152 56.08"/><polyline class="cls-11" points="104 56.08 104 280.08 56 280.08 56 173.37"/><line class="cls-11" x1="561.15" y1="216.12" x2="474.31" y2="216.12"/><line class="cls-11" x1="557.55" y1="152.12" x2="277.64" y2="152.12"/><line class="cls-11" x1="557.55" y1="88.12" x2="285.86" y2="88.12"/><line class="cls-11" x1="349.55" y1="24.12" x2="349.55" y2="185.2"/><line class="cls-11" x1="301.55" y1="179" x2="301.55" y2="76.67"/><line class="cls-11" x1="445.55" y1="24.12" x2="445.55" y2="96.99"/><line class="cls-11" x1="397.55" y1="188.89" x2="397.55" y2="64.78"/><line class="cls-11" x1="541.55" y1="24.12" x2="541.55" y2="231"/><line class="cls-11" x1="493.55" y1="264.83" x2="493.55" y2="24.12"/><line class="cls-11" x1="445.55" y1="220.11" x2="445.55" y2="270.41"/><rect class="cls-12" x="170.75" y="253.23" width="70.43" height="26.97"/><rect class="cls-12" x="145.27" y="226.26" width="68.93" height="26.97"/><rect class="cls-12" x="119.79" y="199.28" width="67.44" height="26.97"/><rect class="cls-13" x="74.84" y="253.23" width="107.9" height="26.97"/><g class="cls-14"><path class="cls-11" d="M70.34,259.2a216,216,0,0,0,54.75,4.44c21.51-1.16,16.61-7.34,32.41-6.57a93.45,93.45,0,0,1,26.69,5"/><path class="cls-11" d="M70.9,262.79c14.17,2.89,42.42,5.17,64,4.71,20.65-.44,18.78-5.41,35.12-5.08,15.83.31,24,3.54,24,3.54"/><path class="cls-11" d="M70.9,271.78c14.17,2.89,43.72,3.06,65.24,1.9s28.09-9.05,32.41-6.57c8,4.63-36.07,15.5-36.07,15.5"/></g><rect class="cls-13" x="74.84" y="226.26" width="80.92" height="26.97"/><rect class="cls-13" x="74.84" y="199.28" width="53.95" height="26.97"/><g class="cls-15"><path class="cls-11" d="M50.22,201.49c20.48,0,20.75,13.11,47.51,13.65s65.54-32.77,65.54-32.77"/><path class="cls-11" d="M48.37,193.67c16.62,0,16.84,13.1,38.56,13.65s53.19-32.77,53.19-32.77"/><path class="cls-11" d="M132.51,214.87c-13.16,0-13.34,9.5-30.53,9.9S59.87,201,59.87,201"/></g><g class="cls-16"><path class="cls-11" d="M73.83,245.51c12-2.08,29.74-5.59,37.92-5.09,11.33.69,26.82,4.63,28,.69s-2.55-6.93-9.25-9.24S78.07,229,70.9,231.32"/><path class="cls-11" d="M70.9,240.31c7.2-1.25,33.9-3.84,38.8-3.54,6.78.41,16.63,3.26,17.32.91s-2.48-1.92-6.5-3.31-45.32.06-49.62,1.44"/><path class="cls-11" d="M66.41,249.3c10.31-2.18,42.52-2.25,51.37-2.13s11.53,2.79,22.09,1.46,12.57-9.13,11.89-13c-1.21-6.91-8.37-12.37-17.47-12.37"/></g><polyline class="cls-17" points="74.84 199.28 128.79 199.28 128.79 226.26 155.76 226.26 155.76 253.23 182.73 253.23 182.73 280.21"/><rect class="cls-12" x="74.84" y="172.31" width="87.06" height="26.97"/><rect class="cls-13" x="74.84" y="172.31" width="28.62" height="26.97"/><g class="cls-18"><path class="cls-11" d="M-8.94,178.28a216.51,216.51,0,0,0,54.75,4.44c21.51-1.16,16.61-7.34,32.41-6.57a93,93,0,0,1,26.69,5"/><path class="cls-11" d="M-8.38,181.86c14.17,2.9,42.42,5.18,64,4.72,20.65-.44,18.78-5.41,35.12-5.09,15.83.31,24,3.54,24,3.54"/><path class="cls-11" d="M-8.38,190.86c14.17,2.89,43.72,3,65.24,1.9s28.09-9,32.41-6.57c8,4.63-36.08,15.5-36.08,15.5"/></g><line class="cls-19" x1="131.41" y1="41.96" x2="101.04" y2="173.21"/><line class="cls-19" x1="171.29" y1="41.98" x2="140.93" y2="173.21"/><line class="cls-19" x1="168.31" y1="54.33" x2="129.32" y2="54.33"/><line class="cls-19" x1="161.55" y1="81.12" x2="122.56" y2="81.12"/><line class="cls-19" x1="155.79" y1="107.91" x2="116.8" y2="107.91"/><line class="cls-19" x1="149.02" y1="134.7" x2="110.03" y2="134.7"/><line class="cls-19" x1="143.26" y1="161.49" x2="104.27" y2="161.49"/><polygon class="cls-20" points="266.88 93.36 440.55 220.11 453.16 203.42 279.5 76.67 266.88 93.36"/><ellipse class="cls-21" cx="359.96" cy="148.34" rx="23.34" ry="23.1"/><ellipse class="cls-13" cx="359.96" cy="148.34" rx="12.49" ry="12.36"/><path class="cls-3" d="M390.12,274.6c-3.36-2.73-2.67-7.41.8-12.84,3.84-6,9-9.23,11.87-6.57,2.7,2.48-.81,7.6-2.78,11.65C397.8,271.36,393.9,277.66,390.12,274.6Z"/><g class="cls-22"><path class="cls-23" d="M394.43,275.41c-4.06-2.52-3.69-10.26-.22-15.69,3.84-6-7.29-.37-8.42,3.19s-1.82,8.49.16,11.68S398.56,278,394.43,275.41Z"/></g><g class="cls-24"><rect class="cls-25" x="209.24" y="47.89" width="143.02" height="4.57"/><rect class="cls-25" x="190.79" y="75.28" width="143.02" height="4.57"/><rect class="cls-25" x="186.17" y="102.68" width="143.02" height="4.57"/><rect class="cls-25" x="167.72" y="130.07" width="143.02" height="4.57"/><rect class="cls-25" x="190.79" y="157.47" width="143.02" height="4.57"/><rect class="cls-25" x="172.33" y="184.86" width="143.02" height="4.57"/><rect class="cls-25" x="223.08" y="212.26" width="143.02" height="4.57"/><rect class="cls-25" x="204.63" y="239.65" width="143.02" height="4.57"/></g><g class="cls-26"><rect class="cls-25" x="338.42" y="47.89" width="143.02" height="4.57" transform="translate(819.87 100.34) rotate(180)"/><rect class="cls-25" x="356.88" y="75.28" width="143.02" height="4.57" transform="translate(856.78 155.13) rotate(180)"/><rect class="cls-25" x="361.49" y="102.68" width="143.02" height="4.57" transform="translate(866 209.92) rotate(180)"/><rect class="cls-25" x="379.94" y="130.07" width="143.02" height="4.57" transform="translate(902.91 264.71) rotate(180)"/><rect class="cls-25" x="356.88" y="157.47" width="143.02" height="4.57" transform="translate(856.78 319.5) rotate(180)"/><rect class="cls-25" x="375.33" y="184.86" width="143.02" height="4.57" transform="translate(893.68 374.29) rotate(180)"/><rect class="cls-25" x="324.58" y="212.26" width="143.02" height="4.57" transform="translate(792.18 429.08) rotate(180)"/><rect class="cls-25" x="329.19" y="239.65" width="143.02" height="4.57" transform="translate(801.41 483.87) rotate(180)"/></g><path class="cls-25" d="M360,258.42c-61.33,0-111.23-49.38-111.23-110.08S298.63,38.25,360,38.25,471.18,87.64,471.18,148.34,421.29,258.42,360,258.42Zm0-214.6c-58.24,0-105.62,46.89-105.62,104.52S301.72,252.85,360,252.85,465.57,206,465.57,148.34,418.19,43.82,360,43.82Z"/><path class="cls-25" d="M360,38.75c61.15,0,110.72,49.07,110.72,109.59S421.11,257.92,360,257.92,249.23,208.86,249.23,148.34,298.8,38.75,360,38.75m0,214.6c58.6,0,106.11-47,106.11-105s-47.51-105-106.11-105-106.12,47-106.12,105,47.51,105,106.12,105m0-215.6a111.58,111.58,0,0,0-79,32.39,109.77,109.77,0,0,0,0,156.39,112.54,112.54,0,0,0,158,0,109.8,109.8,0,0,0,0-156.39,111.62,111.62,0,0,0-79-32.39Zm0,214.6c-58,0-105.12-46.66-105.12-104S302,44.32,360,44.32,465.07,91,465.07,148.34s-47.15,104-105.11,104Z"/><path class="cls-9" d="M409.83,226.62c-1.05-12.25-8.85-24.91-16.13-34-15.8-19.69-39.59-28.41-62.9-28.41s-47.3,7.32-67.41,20.39c-11.79,7.66-20.46,26.6-19.58,52h0c.25,7,11.29,14.76,21.56,15.76,2.29.22,4.58.42,6.89.58q6.9.49,13.86.65,3.47.09,6.95.1c9.29,0,19.55.18,28.93.1,17.49-.15,31.85-.29,38-.43a163,163,0,0,0,17.7-1.15c6.42,7.57,15.44,11.38,19.95,10.16,9.13-2.46,5.95-11.63,9.68-19C410,238.07,410.37,232.9,409.83,226.62Z"/><g class="cls-27"><path class="cls-5" d="M339.25,249.91c7-6.37-6.07-3.31,2.6-15.25,6.36-8.76,21.92-13.18,35.2-7.43,11.83,5.12,14.47,23.77,14.47,23.77s-.26,5.89-23.91,6.78S332.22,256.28,339.25,249.91Z"/><path class="cls-28" d="M304.73,255.26c-.08-2.86,2.37-7.12,4.72-10.83,1.77-2.79,6.57-7,12.29-9.42a48.23,48.23,0,0,0-4.38,5.49,72.41,72.41,0,0,0-7.45,14.67S304.81,258.13,304.73,255.26Z"/><path class="cls-29" d="M280.86,249.82c6.51.39,15.36.93,22.44-1.34"/><path class="cls-30" d="M379.28,254.65c-5.91-5.72-10.51-14.29-9.36-24.92"/></g><path class="cls-2" d="M397.61,262.36c-9.13,2.47-37.52-16.09-24.53-44.37,8.29-18.06,31.58-10.65,34.9,1.67s3.14,16.11-.69,23.68C403.56,250.73,406.74,259.9,397.61,262.36Z"/><g class="cls-31"><path class="cls-32" d="M367.93,234.29c4.81,8.3,15.51,18.17,20.11,20,4.36,2.09,17,3.22,19.84.92-.93,6.57-9.91,11.67-18.66,8.69S373.79,253.61,371,249C368.57,245.07,365.18,238.51,367.93,234.29Z"/></g><path class="cls-29" d="M378.53,210.44a25.39,25.39,0,0,0-7.92,14.35c-.79,4.77-1.22,10.61,0,14.54"/><path class="cls-10" d="M268.45,180.16c-3.63-1.77-12-5.81-15.91-7.64-6.39-3-11.76-5.39-17.28-3-4.21,1.79-5.4,9.85,1.66,18.07C246.08,198.22,268.45,180.16,268.45,180.16Z"/><g class="cls-33"><path class="cls-34" d="M235.36,175.12c7.78-1.26,19.1,13,20.17,21.12s-18.95,3-22.6-7.54C230.69,183.44,227.59,176.39,235.36,175.12Z"/></g><rect class="cls-25" x="395.79" y="212.26" width="24.17" height="4.57" transform="translate(815.76 429.08) rotate(180)"/><ellipse class="cls-1" cx="310.74" cy="148.34" rx="106.11" ry="105.02"/><rect class="cls-35" x="310.74" y="38.75" width="49.22" height="4.57"/><rect class="cls-36" x="310.74" y="253.35" width="49.22" height="4.57"/><polygon class="cls-25" points="363.8 244.22 410.04 244.22 414.65 239.65 363.8 239.65 363.8 244.22"/><path class="cls-37" d="M310.74,258.42c-61.33,0-111.23-49.38-111.23-110.08S249.41,38.25,310.74,38.25,422,87.64,422,148.34,372.07,258.42,310.74,258.42Zm0-214.6c-58.23,0-105.61,46.89-105.61,104.52s47.38,104.51,105.61,104.51S416.35,206,416.35,148.34,369,43.82,310.74,43.82Z"/><path class="cls-37" d="M310.74,38.75c61.15,0,110.73,49.07,110.73,109.59S371.89,257.92,310.74,257.92,200,208.86,200,148.34,249.59,38.75,310.74,38.75m0,214.6c58.6,0,106.11-47,106.11-105s-47.51-105-106.11-105-106.11,47-106.11,105,47.51,105,106.11,105m0-215.6a111.6,111.6,0,0,0-79,32.39,109.77,109.77,0,0,0,0,156.39,112.54,112.54,0,0,0,158,0,109.77,109.77,0,0,0,0-156.39,111.6,111.6,0,0,0-79-32.39Zm0,214.6c-58,0-105.11-46.66-105.11-104s47.15-104,105.11-104S415.85,91,415.85,148.34s-47.15,104-105.11,104Z"/><path class="cls-2" d="M251.9,234.29c4,12.78,1.86,31.31-4.47,31.48s-14.12-13-19.65-25.17c-9.13-20,12-32.81,18.25-33.4C253,206.56,251.9,234.29,251.9,234.29Z"/><g class="cls-38"><path class="cls-39" d="M219.06,237.64c-2.26,17.68,11.85,19.64,16.73,29.14s11.06,7.12,13.15.27c-9.55-11.68-25.22-25.91-24.25-35.94C222.92,224.73,222,234.29,219.06,237.64Z"/><path class="cls-3" d="M257.76,269.23H230s2.51-9,4.07-13.91c2.1-6.53,18.43-5.25,21.57-2.08S257.76,269.23,257.76,269.23Z"/><g class="cls-40"><path class="cls-23" d="M255.8,261.42c-3.59,3.28-1.77,11.39-12,7.55-8.18-4.14-13.86-16.83-13.86-16.83H236s2.35,5.71,9.57,9.71C248.29,263.33,252.05,264.29,255.8,261.42Z"/></g></g><path class="cls-2" d="M314.87,241.84c-6.29,9.34-15.6,31.16-9.13,33.48,9,3.22,20.41-18.07,33.77-24,10.33-4.55,6.7-28.17-5-25.79C326.51,227.17,321.15,232.5,314.87,241.84Z"/><g class="cls-41"><path class="cls-3" d="M324.79,283.13l-29.06-8.37a13,13,0,0,1,6.69-13.39c8.38-4.76,19.48-1.59,20.93,6.37C324.28,272.9,324.79,283.13,324.79,283.13Z"/></g><path class="cls-42" d="M320,209.19c5,12.3-1.24,28.13-14.79,35.52-9.24,5-22,7-34.58,7-23.1,0-35.73-13.86-37.38-20.64-1.35-5.57,1.41-14,6.2-18.56,1.59-12,4.73-36.76,36.57-40.93,16.65-2.18,30.77,3.49,39.06,14.39C319,191.1,316.91,201.59,320,209.19Z"/><path class="cls-43" d="M264.62,213c.2-4.24-4.85-10.82-4.85-10.82s4.12,7.77,1.2,14.19-2.05,5.88-2.05,5.88l4.39-2.23Z"/><g class="cls-44"><path class="cls-45" d="M243,212.05c-4.83,11.3-3.44,18-1.13,32.28-7.89-6.06-17.86-16.25-9.82-30.48,1.37-2.42-.11-16.56,12.34-20.92C241,198.88,243,212.05,243,212.05Z"/></g><g class="cls-46"><path class="cls-47" d="M270.83,165.28c-6.91,5.95-9.58,28.79-5.7,28.39,3.58.12,10.78-17.12,25.71-24.52-15.65-5.54-19.32-3.66-20-3.87Z"/></g><path class="cls-48" d="M255.41,214.81a4.79,4.79,0,0,1-4.73.39"/><path class="cls-48" d="M281,213a4.76,4.76,0,0,1-4.72.4"/><path class="cls-4" d="M292.69,176c1.57-.41,13.33-4.87,22.58-6.92,6-1.33,9.12.11,11.4,3.1,2.6,3.41-1.71,14.25-13.86,20.41S292.69,176,292.69,176Z"/><g class="cls-49"><path class="cls-34" d="M304.37,198.42c-1.26-3.26-6.59-6.7-3-11.38,5.64-7.45,24.22-12.09,24.35-4.48.09,5.15-10.63,12-15,13.69S305.62,201.69,304.37,198.42Z"/></g><path class="cls-5" d="M305.29,224.59c-2.21-2.72-5.09-6-9.75-7.6a30.79,30.79,0,0,0-13.13-2,32.1,32.1,0,0,0-10.1,2.37c-.56.24-1.18.54-1.83.89a30.3,30.3,0,0,1-4.68-7.06.8.8,0,0,0-1.45.07,69.06,69.06,0,0,1-4.54,9.21,14.06,14.06,0,0,0-3.8-1.83,13.85,13.85,0,0,0-8.46.27c-13.09,6-15,12.62-7.6,21.26,6,7,17.72,16.07,35.26,12.73C286,250.87,315.69,241,305.29,224.59Z"/><g class="cls-50"><path class="cls-51" d="M241.1,220.75c-4.82,11.31,8.12,21,12.56,25.17,3.38,3.18,14.16,8.28,21.4,8,5,4.78-14,1.75-18.83-.48s-6.43-3-14.32-9.07-10.14-13.7-7.73-16.89A46.4,46.4,0,0,1,241.1,220.75Z"/></g><path class="cls-52" d="M264.62,237a11,11,0,0,1-2.06-4.12,8.24,8.24,0,0,0-1.79,4.2"/><path class="cls-53" d="M257.76,226.39c.59,4.19,4.93,6.77,4.93,6.77a15.37,15.37,0,0,1,2.72-7.43,5.53,5.53,0,0,0-4-.6A9.05,9.05,0,0,0,257.76,226.39Z"/><path class="cls-21" d="M519,180.49v27a16,16,0,0,1-4.7,11.35l-8.23,8.24a4,4,0,0,1-4.58.74h0a4,4,0,0,1-1-6.35l7.8-7.81a11.13,11.13,0,0,0,3.26-7.87v-25.3Z"/><path class="cls-54" d="M510.5,178.28h10.78a6.08,6.08,0,0,1,6.08,6.08v16.86a0,0,0,0,1,0,0H504.42a0,0,0,0,1,0,0V184.36A6.08,6.08,0,0,1,510.5,178.28Z" transform="translate(1031.77 379.5) rotate(180)"/><rect class="cls-6" x="485.97" y="48.73" width="59.83" height="138.84" rx="29.92"/><g class="cls-55"><path class="cls-56" d="M550.58,124.42c-10.39-6.66-13.37,4.92-19.91,4-11.46-1.7-20-6.19-27-3.31-13,5.37-15.8-.64-21.16-2s-4.94,66.12,2.43,74.84,19.31,26,34.06,22.08,22,2.37,26.33-17.75S550.58,124.42,550.58,124.42Z"/><path class="cls-57" d="M545.8,155.13c-3.27,12.89-24.49,36-49.89,33,21.88,4,33.45,9.88,45.27,1.67S545.8,155.13,545.8,155.13Z"/></g><line class="cls-58" x1="493.48" y1="82.78" x2="493.48" y2="112.37"/><path class="cls-59" d="M251.14,233.25a.47.47,0,0,0-.43-.8c-2.56.59-8,0-12.63-3.18-6.83-4.69-7.54-14.44-18.11-17.4-8.09-2.26-16.43,1.46-17.89,10.78-1.8,11.58,6.76,22.45,19.89,22.74C236,245.7,247.33,236.68,251.14,233.25Z"/><path class="cls-60" d="M515.47,260.05c5.31,2.38,10.47,2.38,11.52,0s-2.4-6.21-7.72-8.58-10.47-2.38-11.53,0S510.15,257.68,515.47,260.05Z"/><path class="cls-60" d="M530.28,259.84a6.45,6.45,0,1,0-6.44-6.45A6.44,6.44,0,0,0,530.28,259.84Z"/><path class="cls-61" d="M435.46,257.51q9.29-11.7,19-13.81Q467,241,476.66,250.07q4.77-5.12,15.54-1.66t11.68,10.21q12.18-2.08,17.31,2.26t2.79,4.35q-30.8,4.65-46.6,4.65-12.84,0-36.05-3.07C437.75,266.34,433.64,259.8,435.46,257.51Z"/><path class="cls-62" d="M439.11,242.32q5.77-.63,4.61,6.28,7.74-16.54,12.64-12.62t-7.18,15.19q11.38-4.6,9.35,3.58-1.89,7.62-17.54,3.6c-.13,0-.75,1.21-1.85,3.75a1.52,1.52,0,0,1-2,.79,1.06,1.06,0,0,1-.21-.11l-.07,0a1.68,1.68,0,0,1-.53-2.32h0l2.08-3.28Q433.32,243,439.11,242.32Z"/><polygon class="cls-63" points="426.99 258.5 539.75 258.5 527.16 280.61 439.58 280.61 426.99 258.5"/><g class="cls-64"><path class="cls-65" d="M527.43,245.59c-16.21,23.89-35.75,36.66-60.82,36.41"/><path class="cls-65" d="M514.9,239.34c-8.69,20.32-24.58,37.13-48.29,44.66"/><path class="cls-66" d="M442.56,256c1.86,8.19,4.46,14.33,9.88,21s7.65,8.55,7.65,8.55-21.23,1.3-22.52,0S420.84,256,420.84,256Z"/></g><rect class="cls-13" x="48.27" y="279.77" width="496" height="1.07"/><path class="cls-8" d="M55.91,280.62a35.22,35.22,0,0,1,70.43,0Z"/><g class="cls-67"><path class="cls-68" d="M66.6,280.62a35.22,35.22,0,0,1,70.43,0Z"/></g></g></svg>