<svg xmlns="http://www.w3.org/2000/svg" xmlns:xlink="http://www.w3.org/1999/xlink" viewBox="0 0 592 300"><defs><style>.cls-1,.cls-21,.cls-24,.cls-30,.cls-32,.cls-34,.cls-37,.cls-4,.cls-41,.cls-43,.cls-6{fill:none;}.cls-1,.cls-2,.cls-3{clip-rule:evenodd;}.cls-15,.cls-2{fill:#ee675c;}.cls-18,.cls-3{fill:#fdd663;}.cls-5{isolation:isolate;}.cls-6{stroke:#f1f1f2;stroke-width:1.14px;}.cls-24,.cls-30,.cls-32,.cls-34,.cls-41,.cls-6{stroke-miterlimit:10;}.cls-7{fill:url(#linear-gradient);}.cls-8,.cls-9{fill:#80868b;}.cls-40,.cls-9{opacity:0.4;}.cls-35,.cls-39,.cls-40,.cls-9{mix-blend-mode:multiply;}.cls-10{clip-path:url(#clip-path);}.cls-11{fill:url(#linear-gradient-2);}.cls-12,.cls-13{fill:#e8eaed;}.cls-12,.cls-15,.cls-17,.cls-18,.cls-20,.cls-25,.cls-27,.cls-29,.cls-42,.cls-43{fill-rule:evenodd;}.cls-14{fill:#dadce0;}.cls-16{clip-path:url(#clip-path-2);}.cls-17,.cls-25{fill:#ea4335;}.cls-17,.cls-44{opacity:0.6;}.cls-19{clip-path:url(#clip-path-3);}.cls-20{fill:#fbbc04;}.cls-21,.cls-43{stroke:#f9ab00;stroke-width:1.35px;}.cls-21,.cls-32,.cls-34,.cls-37,.cls-43{stroke-linecap:round;}.cls-21,.cls-37,.cls-43{stroke-linejoin:round;}.cls-22,.cls-27{fill:#f9ab00;}.cls-23,.cls-42{fill:#fff;}.cls-24{stroke:#f29900;stroke-width:6.81px;}.cls-26{clip-path:url(#clip-path-4);}.cls-28,.cls-29{fill:#f1f3f4;}.cls-30{stroke:#e8eaed;}.cls-31{fill:#e6f4ea;}.cls-32{stroke:#a8dab5;}.cls-33{clip-path:url(#clip-path-5);}.cls-34{stroke:#ceead6;}.cls-35,.cls-39{opacity:0.5;}.cls-35{fill:url(#linear-gradient-3);}.cls-36{fill:#d2e3fc;}.cls-37{stroke:#fff;}.cls-38{clip-path:url(#clip-path-6);}.cls-39{fill:url(#linear-gradient-4);}.cls-40{fill:url(#linear-gradient-5);}.cls-41{stroke:#dadce0;}.cls-44{fill:#5f6368;}</style><linearGradient id="linear-gradient" x1="176.14" y1="134.14" x2="176.14" y2="-4.49" gradientUnits="userSpaceOnUse"><stop offset="0" stop-color="#e8eaed"/><stop offset="0.09" stop-color="#e8eaed" stop-opacity="0.98"/><stop offset="0.19" stop-color="#eaebee" stop-opacity="0.93"/><stop offset="0.28" stop-color="#ecedf0" stop-opacity="0.84"/><stop offset="0.38" stop-color="#eef0f2" stop-opacity="0.72"/><stop offset="0.48" stop-color="#f2f3f5" stop-opacity="0.56"/><stop offset="0.57" stop-color="#f7f7f8" stop-opacity="0.36"/><stop offset="0.67" stop-color="#fcfcfd" stop-opacity="0.14"/><stop offset="0.73" stop-color="#fff" stop-opacity="0"/></linearGradient><clipPath id="clip-path"><polyline class="cls-1" points="544 75 544 267 48 267 48 75"/></clipPath><linearGradient id="linear-gradient-2" x1="296" y1="275.02" x2="296" y2="124.75" gradientUnits="userSpaceOnUse"><stop offset="0" stop-color="#e8eaed" stop-opacity="0"/><stop offset="0.13" stop-color="#e9ebee" stop-opacity="0.1"/><stop offset="0.41" stop-color="#ebedf0" stop-opacity="0.37"/><stop offset="0.82" stop-color="#eff1f3" stop-opacity="0.8"/><stop offset="1" stop-color="#f1f3f4"/></linearGradient><clipPath id="clip-path-2"><path class="cls-2" d="M198.15,241q-12.81-33.81-16-47.18c-2.89-12.08-4.79-23.26-3.65-30.75-11.61-5.48-26.7-.88-32.76.29Q110.37,173.06,198.15,241Z"/></clipPath><clipPath id="clip-path-3"><path class="cls-3" d="M198.49,150.06c8.21-4.68,16.08-9.18,20.9-10.77,21.24,9.83,51.59,48.17,70.72,82.67,8,14.43,12.46,30,16.15,44.46,9.66,37.81,7.2,70.55-1.47,75.4S267,331.34,240.06,303.11c-10.27-10.77-21.14-22.83-29.14-37.25-19.12-34.51-35.55-80.56-32.64-103.79C182.19,158.83,190.17,154.54,198.49,150.06Z"/></clipPath><clipPath id="clip-path-4"><path class="cls-3" d="M289.58,349.86c-7.71-5.47-15.11-10.69-18.59-14.39-.06-23.41,21.85-67.12,45-99,9.69-13.34,22-24,33.47-33.42,30.18-24.74,60.89-36.34,69-30.54s6.46,38.67-7.74,75c-5.41,13.87-11.75,28.82-21.44,42.16-23.19,31.92-58,66.27-80.27,73.44C304.42,360.93,297.16,355.5,289.58,349.86Z"/></clipPath><clipPath id="clip-path-5"><circle class="cls-4" cx="99.61" cy="99.65" r="23.62"/></clipPath><linearGradient id="linear-gradient-3" x1="12183.96" y1="89.75" x2="12208.65" y2="114.44" gradientTransform="translate(-12108.8)" gradientUnits="userSpaceOnUse"><stop offset="0" stop-color="#fff"/><stop offset="1" stop-color="#ceead6"/></linearGradient><clipPath id="clip-path-6"><circle class="cls-4" cx="426.68" cy="63.34" r="33.18"/></clipPath><linearGradient id="linear-gradient-4" x1="12501.13" y1="49.44" x2="12535.81" y2="84.12" gradientTransform="translate(-12108.8)" gradientUnits="userSpaceOnUse"><stop offset="0" stop-color="#fff"/><stop offset="1" stop-color="#d2e3fc"/></linearGradient><linearGradient id="linear-gradient-5" x1="451.21" y1="138.15" x2="487.76" y2="74.85" gradientUnits="userSpaceOnUse"><stop offset="0" stop-color="#dadce0"/><stop offset="1" stop-color="#fff"/></linearGradient></defs><g class="cls-5"><g id="Layer_5" data-name="Layer 5"><path class="cls-6" d="M548.68,140.69a28.42,28.42,0,0,0-36.89,35.53c-6.36-5.95-17.44-4-23.36,2.37s-7.52,15.73-6.95,24.42a31.06,31.06,0,0,0-28.1-6.82,29.94,29.94,0,0,0-10.06,4.8"/><path class="cls-7" d="M191.35,142.32s-27-23.66-27-37.18c0-16.9,10.14-16.9,10.14-27,0-13.52-30.42-13.52-30.42-30.41,0-20.28,9.8-23.58,26.2-30.42,12.48-5.21,38,3.38,38,3.38s-27.05,9.83-27,23.66c0,13.52,23.66,10.14,23.66,27,0,20.28-30.42,16.9-30.42,33.8a38.18,38.18,0,0,0,14.91,30.42Z"/><polygon class="cls-8" points="177.75 152.2 175.54 135.58 196.99 123.69 209.91 134.37 177.75 152.2"/><rect class="cls-9" x="176.74" y="141.36" width="49.04" height="30.65" rx="3" transform="translate(-50.73 117.22) rotate(-29)"/><g class="cls-10"><path class="cls-11" d="M91,267a55.19,55.19,0,0,1,55-51.21,54.56,54.56,0,0,1,20.77,4.11,122.78,122.78,0,0,1,229.88-13.85A73.15,73.15,0,0,1,501,267Z"/><path class="cls-12" d="M416,267h72a24,24,0,0,0,24-24h0a24,24,0,0,0-24-24h0a24,24,0,0,0-24,24h0a24,24,0,0,1-24,24H392"/><path class="cls-12" d="M144,267H84a20,20,0,0,1-20-20h0a20,20,0,0,1,20-20h0a20,20,0,0,1,20,20h0a20,20,0,0,0,20,20h40"/><circle class="cls-13" cx="404" cy="287" r="44"/><circle class="cls-14" cx="430" cy="281" r="26"/><circle class="cls-13" cx="202" cy="269" r="38"/><circle class="cls-13" cx="288" cy="255" r="56"/><path class="cls-15" d="M198.15,241q-12.81-33.81-16-47.18c-2.89-12.08-4.79-23.26-3.65-30.75-11.61-5.48-26.7-.88-32.76.29Q110.37,173.06,198.15,241Z"/><g class="cls-16"><path class="cls-17" d="M132.93,176.61c9.43,12.73,46.42,39.55,63.63,43.54,5.44,10.85,6.32,19.35,6.32,19.35l-8.19,7.07S154.51,216,146.32,203A175.8,175.8,0,0,1,132.93,176.61Z"/></g><path class="cls-15" d="M274.58,197.18q-21.88-28.78-31.53-38.59c-8.7-8.85-17.17-16.39-24.13-19.39,1.5-12.74,13.4-23.11,17.6-27.62Q263.49,86.74,274.58,197.18Z"/><path class="cls-18" d="M198.49,150.06c8.21-4.68,16.08-9.18,20.9-10.77,21.24,9.83,51.59,48.17,70.72,82.67,8,14.43,12.46,30,16.15,44.46,9.66,37.81,7.2,70.55-1.47,75.4S267,331.34,240.06,303.11c-10.27-10.77-21.14-22.83-29.14-37.25-19.12-34.51-35.55-80.56-32.64-103.79C182.19,158.83,190.17,154.54,198.49,150.06Z"/><g class="cls-19"><path class="cls-20" d="M187.27,156.71C209,252,256.74,311.56,300.88,342.59c30.85,19-61.32-20.21-75.13-40.33s-66.57-126.72-49.36-143.9Q193.61,141.17,187.27,156.71Z"/><polyline class="cls-21" points="253.56 299.96 282.16 253.18 263.81 228.24 279.18 202.62"/><polyline class="cls-21" points="263.38 213.67 258.3 183.16 264.94 175.87"/><line class="cls-21" x1="263.81" y1="228.24" x2="242.66" y2="228.9"/><polygon class="cls-22" points="261.2 200.58 260.14 213.92 257.92 217.7 257.01 223.6 251.33 229.24 260.16 228.53 267.7 233.53 267.75 225.21 273.45 220.82 273.34 212.55 266.75 211.36 261.2 200.58"/><path class="cls-21" d="M246.55,212.54c.35,0,6.66-3.64,6.66-3.64"/><line class="cls-21" x1="247.65" y1="239.56" x2="256.19" y2="228.85"/><polyline class="cls-21" points="262.88 211.28 253.21 208.9 247.05 198.6"/></g><ellipse class="cls-23" cx="273.54" cy="285.37" rx="15.55" ry="14.79" transform="translate(-104.06 168.4) rotate(-29)"/><ellipse class="cls-24" cx="273.54" cy="285.37" rx="15.55" ry="14.79" transform="translate(-104.05 168.39) rotate(-29)"/><path class="cls-15" d="M235.16,216,235,216a2.82,2.82,0,0,1-3.79-1l-42.5-71.37a5.49,5.49,0,0,1,1.9-7.52l.15-.08a5.47,5.47,0,0,1,7.45,2.14,1.09,1.09,0,0,1,.08.15l38,73.86A2.82,2.82,0,0,1,235.16,216Z"/><path class="cls-25" d="M300.13,261q-16.83,32-21.65,44.88c-4.34,11.63-7.59,22.5-7.37,30.07-12.18,4-26.61-2.38-32.47-4.28Q204.73,317.72,300.13,261Z"/><path class="cls-18" d="M289.58,349.86c-7.71-5.47-15.11-10.69-18.59-14.39-.06-23.41,21.85-67.12,45-99,9.69-13.34,22-24,33.47-33.42,30.18-24.74,60.89-36.34,69-30.54s6.46,38.67-7.74,75c-5.41,13.87-11.75,28.82-21.44,42.16-23.19,31.92-58,66.27-80.27,73.44C304.42,360.93,297.16,355.5,289.58,349.86Z"/><g class="cls-26"><path class="cls-20" d="M300.35,357.22Q406.6,255.37,420.8,175.69c4.22-36,7.61,64.12-4.8,85.14S329.29,374.71,306.44,366.38Q283.59,358,300.35,357.22Z"/><polygon class="cls-27" points="387.45 178.2 387.25 184.06 388.24 188.34 386 192.13 377.62 190.72 372.93 183.48 387.45 178.2"/></g><ellipse class="cls-23" cx="380.5" cy="224.66" rx="14.79" ry="15.55" transform="translate(-24.9 400.44) rotate(-54)"/><ellipse class="cls-24" cx="380.5" cy="224.66" rx="14.79" ry="15.55" transform="translate(-24.9 400.44) rotate(-54)"/><path class="cls-25" d="M333.81,288.77l.14.11a2.82,2.82,0,0,1,.68,3.87L287.9,361.43a5.47,5.47,0,0,1-7.62,1.45l-.14-.09a5.48,5.48,0,0,1-1.21-7.66l.1-.14,50.88-65.66A2.84,2.84,0,0,1,333.81,288.77Z"/><circle class="cls-28" cx="310" cy="277" r="58"/><circle class="cls-28" cx="232" cy="287" r="44"/><circle class="cls-28" cx="376" cy="291" r="44"/><circle class="cls-28" cx="172" cy="283" r="28"/><path class="cls-29" d="M464,267h48a16,16,0,0,0,16-16h0a16,16,0,0,0-16-16h0a16,16,0,0,0-16,16h0a16,16,0,0,1-16,16H448"/><path class="cls-29" d="M160,267H112a16,16,0,0,1-16-16h0a16,16,0,0,1,16-16h0a16,16,0,0,1,16,16h0a16,16,0,0,0,16,16h32"/></g><path class="cls-30" d="M424.2,255.25c9.35-2.46,19.76-8.57,13-17.86s-13.13-2.49-9.89,3.63,14.2,4.87,18.52.23,2-10.7,1.24-14.32"/><circle class="cls-31" cx="99.61" cy="99.65" r="23.62"/><ellipse class="cls-32" cx="109.06" cy="97.29" rx="7.87" ry="6.3"/><g class="cls-33"><path class="cls-34" d="M139,83.12c-7.88,0-7.88,4.72-15.75,4.72s-7.87-4.72-15.74-4.72-7.87,4.72-15.75,4.72S83.87,83.12,76,83.12s-7.88,4.72-15.75,4.72"/><path class="cls-34" d="M60.25,106c7.87,0,7.87,4.72,15.75,4.72S83.87,106,91.74,106s7.87,4.72,15.75,4.72,7.87-4.72,15.74-4.72,7.87,4.72,15.75,4.72"/><path class="cls-34" d="M60.25,118.16c7.87,0,7.87,4.73,15.75,4.73s7.87-4.73,15.74-4.73,7.87,4.73,15.75,4.73,7.87-4.73,15.74-4.73,7.87,4.73,15.75,4.73"/><circle class="cls-32" cx="92.53" cy="78.39" r="3.94"/></g><path class="cls-35" d="M103.9,119A23.61,23.61,0,0,1,85.2,81a23.61,23.61,0,1,0,33.12,33.11A23.52,23.52,0,0,1,103.9,119Z"/><circle class="cls-36" cx="426.68" cy="63.34" r="33.18"/><ellipse class="cls-37" cx="439.96" cy="60.02" rx="11.06" ry="8.85"/><g class="cls-38"><path class="cls-37" d="M482,40.11c-11.06,0-11.06,6.64-22.12,6.64s-11.06-6.64-22.12-6.64-11.06,6.64-22.13,6.64-11.06-6.64-22.12-6.64-11.06,6.64-22.12,6.64"/><path class="cls-37" d="M371.38,72.19c11.06,0,11.06,6.64,22.12,6.64s11.06-6.64,22.12-6.64,11.06,6.64,22.12,6.64,11.07-6.64,22.13-6.64,11.06,6.64,22.12,6.64"/><path class="cls-37" d="M371.38,89.35c11.06,0,11.06,6.64,22.12,6.64s11.06-6.64,22.12-6.64S426.68,96,437.74,96s11.07-6.64,22.13-6.64S470.93,96,482,96"/><circle class="cls-37" cx="416.73" cy="33.48" r="5.53"/></g><path class="cls-39" d="M432.71,90.5a33.17,33.17,0,0,1-26.28-53.44A33.18,33.18,0,1,0,453,83.6,33,33,0,0,1,432.71,90.5Z"/><ellipse class="cls-28" cx="476.49" cy="94.46" rx="50.51" ry="50.46"/><ellipse class="cls-14" cx="465.67" cy="119.69" rx="10.82" ry="10.81"/><path class="cls-40" d="M490.92,130.5a50.45,50.45,0,0,1-42.19-78.19,50.47,50.47,0,1,0,69.95,69.88A50.25,50.25,0,0,1,490.92,130.5Z"/><ellipse class="cls-41" cx="505.35" cy="72.84" rx="7.22" ry="7.21"/><circle class="cls-14" cx="465.67" cy="83.65" r="3.61"/><circle class="cls-14" cx="501.75" cy="105.27" r="3.61"/><circle class="cls-14" cx="487.32" cy="62.02" r="3.61"/><path class="cls-42" d="M55.89,268c0-3.52,3.16-6.39,6.55-7.31s7-.37,10.46.2l16.38,2.7c-1.42-4.72,1.86-9.85,6.24-12.11s9.53-2.32,14.45-2.11a167.62,167.62,0,0,1,40.81,6.83c-2.44-1.78-5-5.45-2.6-7.29a4.47,4.47,0,0,1,2.74-.69c12.24-.18,24,7.93,27.06,19.78Z"/><path class="cls-42" d="M448.65,267.07c-3.82,0-3-1.89-2.13-2.5,14.27-9.79,35.06-9.51,32.52-3.2,3.31-1.43,8.15-3,12.32-3.05s8.36,1.47,5.43,3.5c8.23.07,22.32,1.89,18.84,5.25Z"/><path class="cls-30" d="M156.33,255c-2.34.84-6.31,0-8.61-1-4.79-2-6.67-5.79-2.93-10.51s11.21-3.59,11.6-.4-3.57,5.17-8.32,5.7a12.62,12.62,0,0,1-11.37-5.25c-1.93-2.71-2.25-6.29-1.27-10.75s5.12-7.26,8.11-5.38,1.12,5.83-4.58,6.69-11.2-1.32-12.73-5.74"/><path class="cls-6" d="M156,226.85c-11.91-25.77-33.86-32.45-49.67-24.51,5.76-14.56,8.56-29.08,2.32-40.71S92,142.75,76,140"/><rect class="cls-13" x="48" y="267" width="496" height="2"/><polyline class="cls-21" points="385.91 187.88 386 197.08 370.69 198.01 371.62 201.54"/><polyline class="cls-43" points="385.39 185.36 391.72 185.36 392.65 190.2 404.74 187.88"/><polygon class="cls-44" points="177.75 152.2 175.54 135.58 181.19 132.45 186.7 147.23 177.75 152.2"/></g></g></svg>