<svg xmlns="http://www.w3.org/2000/svg" xmlns:xlink="http://www.w3.org/1999/xlink" viewBox="0 0 592 300"><defs><style>.cls-1,.cls-14,.cls-16,.cls-19,.cls-2,.cls-22,.cls-23,.cls-24,.cls-25,.cls-8,.cls-9{fill:none;}.cls-2{clip-rule:evenodd;}.cls-3{fill:#80868b;}.cls-4{fill:#feefc3;}.cls-39,.cls-5{fill:#fcad70;}.cls-12,.cls-6{fill:#e8eaed;}.cls-7{clip-path:url(#clip-path);}.cls-14,.cls-23,.cls-24,.cls-8{stroke:#fff;}.cls-14,.cls-16,.cls-19,.cls-22,.cls-24,.cls-25,.cls-8,.cls-9{stroke-miterlimit:10;}.cls-14,.cls-8{stroke-width:1.47px;}.cls-14,.cls-27,.cls-8{opacity:0.5;}.cls-9{stroke:#f1f1f2;stroke-width:1.14px;}.cls-10{opacity:0.6;}.cls-11,.cls-18{fill:#f1f3f4;}.cls-11,.cls-12,.cls-14,.cls-21,.cls-22,.cls-24,.cls-34{fill-rule:evenodd;}.cls-13{clip-path:url(#clip-path-2);}.cls-15,.cls-34{fill:#ceead6;}.cls-16,.cls-19{stroke:#f1f3f4;}.cls-16{stroke-width:2px;}.cls-17{fill:#fff;}.cls-19{stroke-width:2.93px;}.cls-20{fill:#e8f0fe;}.cls-21{fill:#fad2cf;}.cls-22{stroke:#fce8e6;}.cls-23{stroke-linecap:round;stroke-linejoin:round;stroke-width:1.54px;}.cls-24{stroke-width:0.83px;}.cls-25{stroke:#5f6368;stroke-width:1.91px;}.cls-26{clip-path:url(#clip-path-3);}.cls-27{fill:#5f6368;}.cls-28{clip-path:url(#clip-path-4);}.cls-29{clip-path:url(#clip-path-5);}.cls-30{clip-path:url(#clip-path-6);}.cls-31{clip-path:url(#clip-path-7);}.cls-32{fill:#fcc934;}.cls-33{clip-path:url(#clip-path-8);}.cls-35{fill:#ea4335;}.cls-36{fill:#f6aea9;}.cls-37{clip-path:url(#clip-path-9);}.cls-38{fill:#feefe3;}.cls-39{opacity:0.3;}.cls-40{fill:#fa903e;}.cls-41{fill:#fa7b17;}.cls-42{clip-path:url(#clip-path-10);}</style><clipPath id="clip-path"><path class="cls-1" d="M403.22,261.39H317.69a42.77,42.77,0,0,1,85.53,0Z"/></clipPath><clipPath id="clip-path-2"><polygon class="cls-2" points="161.15 261.56 228.12 261.56 207.35 222.79 183.36 222.79 165.75 241.42 161.15 261.56"/></clipPath><clipPath id="clip-path-3"><rect class="cls-3" x="186.96" y="180.56" width="10.64" height="80.82"/></clipPath><clipPath id="clip-path-4"><rect class="cls-3" x="357.74" y="180.56" width="10.64" height="80.82"/></clipPath><clipPath id="clip-path-5"><rect class="cls-3" x="186.96" y="88.91" width="10.64" height="92.84"/></clipPath><clipPath id="clip-path-6"><rect class="cls-3" x="357.74" y="88.91" width="10.64" height="92.84"/></clipPath><clipPath id="clip-path-7"><rect class="cls-4" x="176.32" y="172.22" width="200.73" height="53.81"/></clipPath><clipPath id="clip-path-8"><rect class="cls-4" x="171.09" y="100.24" width="207.02" height="45.61" transform="translate(-15.13 41.8) rotate(-8.47)"/></clipPath><clipPath id="clip-path-9"><polygon class="cls-5" points="410.47 183.46 402.47 183.46 382.67 258.31 430.28 258.31 410.47 183.46"/></clipPath><clipPath id="clip-path-10"><polygon class="cls-5" points="152.19 183.46 144.19 183.46 124.38 258.31 171.99 258.31 152.19 183.46"/></clipPath></defs><g id="Layer_5" data-name="Layer 5"><path class="cls-6" d="M403.22,261.39H317.69a42.77,42.77,0,0,1,85.53,0Z"/><g class="cls-7"><path class="cls-8" d="M415.26,234.46a45.74,45.74,0,0,0-21.59-6c-11.09-.41-22.85,1.85-32.61,1.36A31.33,31.33,0,0,0,346.85,232a140,140,0,0,1-20,5.92c-14.65,3.25-30.45,6.14-43.61,11.43"/><path class="cls-8" d="M415.79,243.15a97,97,0,0,0-34.27-9c-6.23-.45-13-.12-17.88,3.81-4,3.26-6.05,8.5-10.05,11.8-6.33,5.24-15.5,4.23-23.72,4.32a74,74,0,0,0-48.2,18.78"/><path class="cls-8" d="M312.06,278.19c2.38-3.63,6.07-6.48,9.87-8.82a69,69,0,0,1,23.33-9.05c5.86-1.1,12.29-1.61,17-5,3-2.14,4.9-5.11,7.92-7.16,3.64-2.47,8.42-3.19,13-3.44a87.25,87.25,0,0,1,25.69,2.43"/><path class="cls-8" d="M352.62,265.56c.9-2.67,3.72-4.12,6.33-5.2a114.65,114.65,0,0,1,58.3-7.82"/></g><path class="cls-9" d="M46.48,159.92A219.83,219.83,0,0,0,80.3,130.65c12.36,9.94,17.13,29.1,32.21,34,6.15,2,13,1.1,19-1.22,4.29-1.64,13.48-11.24,13.48-11.24s11.41,16.08,16.31,21.66c7.81,8.88,29.69,26.91,41.5,26.49"/><path class="cls-9" d="M570.18,131.22a28.43,28.43,0,0,0-29.48,41.89c-7.37-4.63-17.88-.62-22.48,6.77s-4.4,16.87-2.18,25.28a31.08,31.08,0,0,0-28.88-1.35,30.15,30.15,0,0,0-9,6.62"/><g class="cls-10"><polygon class="cls-11" points="482.06 210.42 490.52 140.96 403.71 140.96 395.25 210.42 482.06 210.42"/><polygon class="cls-11" points="403.71 140.96 389.05 261.33 394.71 261.33 409.37 140.96 403.71 140.96"/><polygon class="cls-11" points="484.86 140.96 470.2 261.33 475.87 261.33 490.52 140.96 484.86 140.96"/></g><polygon class="cls-12" points="161.15 261.56 228.12 261.56 207.35 222.79 183.36 222.79 165.75 241.42 161.15 261.56"/><g class="cls-13"><path class="cls-14" d="M180.23,224.61c3.58,3.29,5.34,7.68,12.78,7.48s19.82.62,24.23-3.48"/><path class="cls-14" d="M221.15,243.55c-10.37.36-22.09,7.14-29.86,1.35s-7.22-9.63-13.88-11.82a35,35,0,0,0-12.48-1.69"/><path class="cls-14" d="M162.83,243.65c4.45,2.39,18.38.66,23.47,5.28s6.56,9.78,12.43,8.11c8.12-2.33,22.78-16.36,27.72-6.14"/></g><path class="cls-15" d="M65.79,261.39c-5.09-9.09-4.9-13.34-4.9-13.34l12.32,6.75L53,215.62S66.27,223,76.8,246.54c-11.66-38.28-1-48.38-1-48.38s14,22.08,9,48.14c3.94-23.33,13.7-28.57,13.7-28.57s-6.61,22.55-5.27,43.66Z"/><rect class="cls-16" x="103.24" y="141.39" width="7.13" height="139.93" transform="translate(-20.79 11.86) rotate(-5.79)"/><rect class="cls-17" x="64.58" y="110.28" width="75.46" height="41.18" transform="translate(-18.09 16.42) rotate(-8.43)"/><rect class="cls-17" x="102.31" y="260.29" width="27.25" height="27.25"/><polygon class="cls-15" points="92.3 261.39 136.47 261.39 146.4 253.95 144.41 243.52 118.24 227.64 88.33 236.08 92.3 261.39"/><polygon class="cls-6" points="92.97 234.77 88.33 236.08 92.3 261.39 114.24 261.39 99.41 255.27 92.97 234.77"/><polygon class="cls-18" points="146.4 253.95 144.41 243.52 118.24 227.64 92.97 234.77 99.41 255.27 114.24 261.39 136.47 261.39 146.4 253.95"/><polygon class="cls-12" points="485.46 140.96 512.41 261.33 517.47 261.33 490.52 140.96 485.46 140.96"/><polygon class="cls-12" points="403.71 140.96 430.66 261.33 435.72 261.33 408.77 140.96 403.71 140.96"/><line class="cls-19" x1="508.3" y1="229.9" x2="428.69" y2="229.9"/><path class="cls-15" d="M517.79,261.39c-5.9-24.9-4.82-24.33-4.82-24.33l6,9.32.6-34.86s6.48,10.12,5,30.45C530.83,211,542,207.9,542,207.9a270.74,270.74,0,0,0-11.78,36.89C537.39,237.25,550.5,230,550.5,230s-14.77,12.57-20.87,31.37Z"/><polygon class="cls-12" points="502.61 194.93 490.52 140.96 403.71 140.96 415.79 194.93 502.61 194.93"/><polygon class="cls-20" points="484.38 261.39 481.31 255.5 500.33 239.54 511.17 241.18 522.13 261.39 484.38 261.39"/><polygon class="cls-6" points="511.17 241.18 511.17 241.18 500.33 239.54 481.31 255.5 484.38 261.39 498.98 261.39 497.37 255.21 511.17 241.18"/><polygon class="cls-18" points="511.17 241.18 491.14 255.21 488.58 261.39 522.13 261.39 511.17 241.18"/><polygon class="cls-21" points="97.63 111.4 71.37 177.85 142.05 167.37 97.63 111.4"/><polygon class="cls-22" points="98.53 117.63 76.26 173.96 136.18 165.08 98.53 117.63"/><circle class="cls-23" cx="103.11" cy="152.23" r="10"/><line class="cls-23" x1="94.88" y1="146.47" x2="111.34" y2="158"/><polygon class="cls-24" points="493.91 188 484.93 147.89 413.41 147.89 422.39 188 493.91 188"/><line class="cls-25" x1="192.28" y1="102.93" x2="192.28" y2="70.96"/><line class="cls-25" x1="363.06" y1="102.93" x2="363.06" y2="70.96"/><rect class="cls-3" x="186.96" y="180.56" width="10.64" height="80.82"/><g class="cls-26"><path class="cls-27" d="M184.73,234.88c6.13-5.63,11.15-7.08,17.27-4V219.7H181.72Z"/></g><rect class="cls-3" x="357.74" y="180.56" width="10.64" height="80.82"/><g class="cls-28"><path class="cls-27" d="M354.62,234.88c6.13-5.63,11.15-7.08,17.27-4V219.7H351.61Z"/></g><rect class="cls-3" x="186.96" y="88.91" width="10.64" height="92.84"/><g class="cls-29"><path class="cls-27" d="M199.91,149.76l-16.25,2.42s-1.18,12.69.46,11.95c5.57-2.51,11.65-3.49,16.5-.53C201.52,164.15,199.91,149.76,199.91,149.76Z"/></g><rect class="cls-3" x="357.74" y="88.91" width="10.64" height="92.84"/><g class="cls-30"><path class="cls-27" d="M370.74,124.48l-16.25,2.42s-1.18,12.69.46,11.95c5.57-2.51,11.65-3.49,16.5-.53C372.35,138.87,370.74,124.48,370.74,124.48Z"/></g><rect class="cls-4" x="176.32" y="172.22" width="200.73" height="53.81"/><g class="cls-31"><rect class="cls-32" x="466.49" y="151.87" width="10.64" height="105.3" transform="translate(282.81 -273.72) rotate(45)"/><rect class="cls-32" x="426.37" y="151.87" width="10.64" height="105.3" transform="translate(271.06 -245.35) rotate(45)"/><rect class="cls-32" x="386.24" y="151.87" width="10.64" height="105.3" transform="translate(259.3 -216.98) rotate(45)"/><rect class="cls-32" x="346.12" y="151.87" width="10.64" height="105.3" transform="translate(247.55 -188.6) rotate(45)"/><rect class="cls-32" x="306" y="151.87" width="10.64" height="105.3" transform="translate(235.8 -160.23) rotate(45)"/><rect class="cls-32" x="265.87" y="151.87" width="10.64" height="105.3" transform="translate(224.05 -131.86) rotate(45)"/><rect class="cls-32" x="225.75" y="151.87" width="10.64" height="105.3" transform="translate(212.3 -103.49) rotate(45)"/><rect class="cls-32" x="185.62" y="151.87" width="10.64" height="105.3" transform="translate(200.54 -75.12) rotate(45)"/><rect class="cls-32" x="145.5" y="151.87" width="10.64" height="105.3" transform="translate(188.79 -46.75) rotate(45)"/><rect class="cls-32" x="105.38" y="151.87" width="10.64" height="105.3" transform="translate(177.04 -18.37) rotate(45)"/></g><rect class="cls-4" x="171.09" y="100.24" width="207.02" height="45.61" transform="translate(-15.13 41.8) rotate(-8.47)"/><g class="cls-33"><rect class="cls-32" x="457.36" y="51.97" width="10.64" height="105.3" transform="translate(153.15 -254.84) rotate(36.53)"/><rect class="cls-32" x="417.68" y="57.88" width="10.64" height="105.3" transform="translate(148.88 -230.06) rotate(36.53)"/><rect class="cls-32" x="377.99" y="63.8" width="10.64" height="105.3" transform="translate(144.6 -205.28) rotate(36.53)"/><rect class="cls-32" x="338.31" y="69.71" width="10.64" height="105.3" transform="translate(140.32 -180.49) rotate(36.53)"/><rect class="cls-32" x="298.62" y="75.62" width="10.64" height="105.3" transform="translate(136.05 -155.71) rotate(36.53)"/><rect class="cls-32" x="258.94" y="81.53" width="10.64" height="105.3" transform="translate(131.77 -130.93) rotate(36.53)"/><rect class="cls-32" x="219.25" y="87.45" width="10.64" height="105.3" transform="translate(127.49 -106.15) rotate(36.53)"/><rect class="cls-32" x="179.56" y="93.36" width="10.64" height="105.3" transform="translate(123.22 -81.37) rotate(36.53)"/><rect class="cls-32" x="139.88" y="99.27" width="10.64" height="105.3" transform="translate(118.94 -56.58) rotate(36.53)"/><rect class="cls-32" x="100.19" y="105.18" width="10.64" height="105.3" transform="translate(114.67 -31.8) rotate(36.53)"/></g><path class="cls-34" d="M330.48,261.38a4.15,4.15,0,0,1,3.24-3.62,12.19,12.19,0,0,1,5.17.1l8.1,1.34c-.7-2.34.92-4.87,3.09-6s4.71-1.15,7.15-1.05a83.29,83.29,0,0,1,20.18,3.38c-1.21-.88-2.47-2.69-1.29-3.6a2.2,2.2,0,0,1,1.36-.34c6-.09,11.87,3.92,13.38,9.78Z"/><path class="cls-34" d="M184.81,261.56c-1.89-.18-2.39-1.45-1.75-2.05,6.42-6,19.19-7.23,26.67-2.63,2.72-1.17,5.72-2.1,8.61-1.44s5.45,3.21,4.91,6.12Z"/><circle class="cls-35" cx="192.28" cy="70.96" r="10.8"/><circle class="cls-35" cx="363.06" cy="70.96" r="10.8"/><circle class="cls-36" cx="363.06" cy="70.96" r="6.48"/><circle class="cls-36" cx="192.28" cy="70.96" r="6.48"/><polygon class="cls-5" points="410.47 183.46 402.47 183.46 382.67 258.31 430.28 258.31 410.47 183.46"/><g class="cls-37"><rect class="cls-38" x="391.94" y="204.39" width="30.48" height="8.88"/><rect class="cls-38" x="388.78" y="221.71" width="36.79" height="8.88"/></g><polygon class="cls-39" points="404.93 183.46 402.47 183.46 382.67 258.31 391.88 258.31 404.93 183.46"/><rect class="cls-40" x="376.47" y="255.05" width="60" height="6.51"/><g class="cls-10"><polygon class="cls-41" points="391.88 261.56 376.47 261.56 376.47 255.05 396.32 255.05 391.88 261.56"/></g><polygon class="cls-5" points="152.19 183.46 144.19 183.46 124.38 258.31 171.99 258.31 152.19 183.46"/><g class="cls-42"><rect class="cls-38" x="133.65" y="204.39" width="30.48" height="8.88"/><rect class="cls-38" x="130.5" y="221.71" width="36.79" height="8.88"/></g><polygon class="cls-39" points="146.64 183.46 144.19 183.46 124.38 258.31 133.59 258.31 146.64 183.46"/><rect class="cls-40" x="118.19" y="255.05" width="60" height="6.51"/><g class="cls-10"><polygon class="cls-41" points="133.59 261.56 118.19 261.56 118.19 255.05 138.03 255.05 133.59 261.56"/></g><rect class="cls-6" x="48" y="261.56" width="496" height="2"/></g></svg>