<svg xmlns="http://www.w3.org/2000/svg" xmlns:xlink="http://www.w3.org/1999/xlink" viewBox="0 0 592 300"><defs><style>.cls-1,.cls-12,.cls-14,.cls-15,.cls-16,.cls-18,.cls-24,.cls-26,.cls-7{fill:none;}.cls-2{fill:#f8f9fa;}.cls-3{fill:#fdd663;}.cls-4{fill:#ceead6;}.cls-5{fill:#e6f4ea;}.cls-6{fill:#e8eaed;}.cls-7{stroke:#bdc1c6;}.cls-14,.cls-15,.cls-16,.cls-18,.cls-19,.cls-20,.cls-24,.cls-7{stroke-linecap:round;stroke-linejoin:round;}.cls-8{fill:#dadce0;}.cls-9{fill:#f1f3f4;}.cls-10{fill:#bdc1c6;}.cls-11{fill:#80868b;}.cls-12,.cls-18,.cls-19{stroke:#fff;}.cls-12,.cls-26{stroke-miterlimit:10;}.cls-13{fill:#9aa0a6;}.cls-14,.cls-20{stroke:#3c4043;}.cls-15{stroke:#a8dab5;}.cls-16{stroke:#5f6368;}.cls-17{fill:#5f6368;}.cls-19{fill:#fff;}.cls-20{fill:#3c4043;}.cls-21{clip-path:url(#clip-path);}.cls-22{clip-path:url(#clip-path-2);}.cls-23{fill:#f6aea9;}.cls-24{stroke:#ea4335;}.cls-25{clip-path:url(#clip-path-3);}.cls-26{stroke:#9aa0a6;}</style><clipPath id="clip-path"><polygon class="cls-1" points="488 209 488 247 456 247 456 240 488 209"/></clipPath><clipPath id="clip-path-2"><polygon class="cls-1" points="456 237 456 203 488 203 488 205 456 237"/></clipPath><clipPath id="clip-path-3"><rect class="cls-1" x="200" y="127" width="128" height="104" rx="4"/></clipPath></defs><g id="Layer_5" data-name="Layer 5"><rect class="cls-2" x="384" y="79" width="112" height="80" rx="4"/><circle class="cls-3" cx="432" cy="111" r="12"/><path class="cls-4" d="M428,143s20-20,32-20c16,0,32,32,32,32H428Z"/><path class="cls-5" d="M388,131s16-20,28-20,52,44,52,44H388Z"/><path class="cls-6" d="M384,83v72a4,4,0,0,0,4,4H492a4,4,0,0,0,4-4V83a4,4,0,0,0-4-4H388A4,4,0,0,0,384,83Zm104,68H392V87h96Z"/><rect class="cls-7" x="392" y="87" width="96" height="64"/><rect class="cls-8" x="92" y="175" width="64" height="96" rx="8"/><rect class="cls-9" x="64" y="175" width="56" height="96" rx="8"/><circle class="cls-10" cx="92" cy="231" r="20"/><circle class="cls-11" cx="92" cy="231" r="8"/><circle class="cls-12" cx="92" cy="231" r="16"/><circle class="cls-10" cx="92" cy="195" r="8"/><rect class="cls-8" x="496" y="191" width="32" height="48" rx="4"/><rect class="cls-13" x="504" y="199" width="16" height="12"/><rect class="cls-13" x="504" y="219" width="16" height="12"/><path class="cls-14" d="M508,205v0Z"/><path class="cls-14" d="M516,205v0Z"/><path class="cls-14" d="M508,225v0Z"/><path class="cls-14" d="M516,225v0Z"/><path class="cls-4" d="M161,212c-13.58-3.65-31.35-11.89-33.36-21.24-1.26-5.79,1.3-7.83,3.46-10.34a5.1,5.1,0,0,0-1.33-7.71c-2.7-1.46-6.73-3-13.41-10.62-6.18-7.08-7.32-14.61-4.6-19.45s7.69-4.85,9-8.83,0-7.61-2.23-11.67c-5-9.21-.3-20.06,7.54-22.22s18.6,2.32,21.55,10.59c2.3,6.44,3.26,13.34,4.6,15.73s5.46-5.46,10.75-4.34,8.34,10.88,5.93,18.13-3.58,15.12-1.37,17.28,13.54,5.88,14.82,19a62.15,62.15,0,0,1-1.55,16.9c-1.56,7.57-5.11,13.76-7.82,16.48C168.44,214.25,161,212,161,212Z"/><line class="cls-15" x1="126.33" y1="101.17" x2="172.47" y2="219.24"/><line class="cls-15" x1="131.72" y1="183.15" x2="166.44" y2="203.69"/><line class="cls-15" x1="111.83" y1="150.09" x2="155.44" y2="175.82"/><line class="cls-15" x1="122.37" y1="132.69" x2="143.17" y2="144.28"/><line class="cls-15" x1="118.18" y1="113.92" x2="135.03" y2="123.31"/><line class="cls-15" x1="156.08" y1="177.02" x2="167.97" y2="137.29"/><path class="cls-15" d="M150.22,123c-.22.29-6.53,22.19-6.53,22.19"/><path class="cls-15" d="M140.55,104.92c-.22.28-5.1,19.55-5.1,19.55"/><path class="cls-15" d="M180.22,173.37c0,.35-14.14,29.87-14.14,29.87"/><path class="cls-5" d="M182.79,211.62c-7.61-1.52-22.86-16.52-15.47-35,2.82-7,7.49-9.74,5.7-16.63s-4.14-8.67-7.47-11.81-5-7.78.53-11.4,8.26-4.62,10.36-8.25,4.91-7.13,3.14-13-1.76-12.24,4.29-15.74,10.75-4.74,13.56-7.49c2.55-2.49,3.93-5.62,2.86-10.67s-1.76-14.59,11.8-18,26.81,7.15,27.55,17c1,13-8.45,17-8.24,20.83s.44,5.84,5.32,8.12,10.11,6.06,5.5,13.77-10,7.54-12.85,16.91-.52,11.92,2.14,16,3.88,13.19-1.94,22.74-18.89,22.11-26.49,26.48S190.37,213.13,182.79,211.62Z"/><line class="cls-15" x1="221.84" y1="64.78" x2="182.08" y2="219.16"/><line class="cls-15" x1="167.95" y1="175.34" x2="184.33" y2="211.03"/><line class="cls-15" x1="176.84" y1="132.02" x2="193.82" y2="173.67"/><line class="cls-15" x1="193.93" y1="96.99" x2="205.94" y2="125.94"/><line class="cls-15" x1="204.09" y1="70.15" x2="213.81" y2="95.67"/><line class="cls-15" x1="222.85" y1="184.73" x2="184.79" y2="209.97"/><line class="cls-15" x1="225.79" y1="149.69" x2="194.52" y2="171.66"/><line class="cls-15" x1="230.47" y1="107.07" x2="207.06" y2="123.55"/><line class="cls-15" x1="236.76" y1="77.15" x2="214.71" y2="93.45"/><path class="cls-2" d="M189.89,271H162.7a12,12,0,0,1-11.88-10.3L145,219.57a4,4,0,0,1,4-4.57h54.77a4,4,0,0,1,4,4.57l-5.87,41.13A12,12,0,0,1,189.89,271Z"/><path class="cls-6" d="M147.15,235l3.67,25.7A12,12,0,0,0,162.7,271h27.19a12,12,0,0,0,11.88-10.3l3.67-25.7Z"/><path class="cls-14" d="M406,223h14a10,10,0,0,1,10,10v26c0,5.52,2,11.5,10,11.5,12.5,0,12.5-7,28.5-7"/><path class="cls-13" d="M472,255h11a1,1,0,0,1,1,1v14a1,1,0,0,1-1,1H472a8,8,0,0,1-8-8v0a8,8,0,0,1,8-8Z"/><rect class="cls-10" x="476" y="255" width="8" height="16" rx="1"/><polyline class="cls-16" points="304 55 352 135 288 79"/><path class="cls-17" d="M344,127l76.12,45.67a8,8,0,0,1,3.88,6.86V231a8,8,0,0,1-8,8H344Z"/><rect class="cls-11" x="264" y="119" width="144" height="120" rx="8"/><rect class="cls-10" x="192" y="119" width="176" height="120" rx="8"/><polygon class="cls-11" points="212 271 208 271 216 239 232 239 212 271"/><polygon class="cls-17" points="388 271 392 271 384 239 368 239 388 271"/><polygon class="cls-17" points="252 271 248 271 256 239 272 239 252 271"/><polygon class="cls-11" points="348 271 352 271 344 239 328 239 348 271"/><polygon class="cls-13" points="408 155 402 149 392 159 408 175 408 155"/><rect class="cls-10" x="376.93" y="210.76" width="14.14" height="8.49" transform="translate(-39.56 334.5) rotate(-45)"/><rect class="cls-18" x="336" y="127" width="24" height="56" rx="4"/><circle class="cls-18" cx="348" cy="139" r="8"/><line class="cls-19" x1="356.49" y1="130.51" x2="339.51" y2="147.49"/><circle class="cls-18" cx="348" cy="163" r="4"/><circle class="cls-18" cx="348" cy="175" r="4"/><line class="cls-19" x1="336" y1="199" x2="360" y2="199"/><line class="cls-19" x1="336" y1="191" x2="360" y2="191"/><line class="cls-19" x1="336" y1="207" x2="360" y2="207"/><line class="cls-19" x1="336" y1="215" x2="360" y2="215"/><line class="cls-19" x1="336" y1="223" x2="360" y2="223"/><line class="cls-19" x1="336" y1="231" x2="360" y2="231"/><rect class="cls-20" x="200" y="127" width="128" height="104" rx="4"/><line class="cls-14" x1="480" y1="259" x2="486" y2="259"/><line class="cls-14" x1="480" y1="267" x2="486" y2="267"/><rect class="cls-6" x="48" y="271" width="496" height="2"/><g class="cls-21"><polygon class="cls-8" points="460 207 468 223 460 223 476 247 472 227 480 227 476 207 460 207"/></g><g class="cls-22"><polygon class="cls-23" points="460 207 468 223 460 223 476 247 472 227 480 227 476 207 460 207"/></g><line class="cls-24" x1="484" y1="209" x2="458" y2="235"/><g class="cls-25"><path class="cls-26" d="M194.52,188.31c13.2-6.56,25.48-14.94,42.24-3.58,16.55,11.21,30,7.55,41.1-1.06s21.95-17.89,32-11.16S320,187,340,183"/><path class="cls-26" d="M196.93,215.05c6.32-5.08,9.61-11.88,17.78-5.08s11.71,9.64,17.29,7.22,13.3-9.68,20.18-6.19,14.51,11.8,24.37,8,13.77-13.46,25.12-11,13.46,7.13,19.9,6.64,8.19-3.77,12.47-8.87"/><path class="cls-26" d="M194.16,148.55c21.56,20,27.53-7.37,38.64,1s15.57,19.25,28.41,10.65S280.65,131.79,296,147s21.58-.76,35.25-1.83"/></g></g></svg>