<svg xmlns="http://www.w3.org/2000/svg" xmlns:xlink="http://www.w3.org/1999/xlink" viewBox="0 0 592 300"><defs><style>.cls-1,.cls-11,.cls-27,.cls-31,.cls-33,.cls-34,.cls-37{fill:none;}.cls-2{isolation:isolate;}.cls-10,.cls-13,.cls-3,.cls-39{fill:#fff;}.cls-10,.cls-3{stroke:#e8eaed;}.cls-10,.cls-11,.cls-27,.cls-3,.cls-31,.cls-33,.cls-34,.cls-37,.cls-38,.cls-39{stroke-miterlimit:10;}.cls-3{stroke-width:1.84px;}.cls-10,.cls-14,.cls-38,.cls-39,.cls-4,.cls-5,.cls-6,.cls-7,.cls-8,.cls-9{fill-rule:evenodd;}.cls-4{fill:url(#linear-gradient);}.cls-5{fill:url(#linear-gradient-2);}.cls-6{fill:url(#linear-gradient-3);}.cls-7{fill:url(#linear-gradient-4);}.cls-30,.cls-8{fill:#e8eaed;}.cls-38,.cls-9{fill:#e2e3e6;}.cls-10,.cls-31,.cls-33,.cls-34,.cls-39{stroke-width:2px;}.cls-11,.cls-37{stroke:#f1f3f4;}.cls-12{fill:#f1f3f4;}.cls-14,.cls-20{fill:#dadce0;}.cls-15{fill:#feefc3;}.cls-16{fill:#3c4043;}.cls-17{fill:#5f6368;}.cls-18{fill:#9aa0a6;}.cls-19{fill:#bdc1c6;}.cls-21{fill:#8ab4f8;}.cls-22{fill:#f28b82;}.cls-23{fill:#fdd663;}.cls-24{fill:#81c995;}.cls-25{fill:#ea4335;}.cls-26{fill:#ee675c;}.cls-27{stroke:#fff;stroke-width:1.28px;}.cls-28{clip-path:url(#clip-path);}.cls-29{fill:#202124;}.cls-31{stroke:#3c4043;}.cls-32{fill:url(#linear-gradient-5);}.cls-33{stroke:#ee675c;}.cls-34{stroke:#f6aea9;}.cls-35{opacity:0.5;mix-blend-mode:multiply;fill:url(#linear-gradient-6);}.cls-36{fill:url(#linear-gradient-7);}.cls-37{stroke-width:1.2px;}.cls-38{stroke:#e2e3e6;}.cls-39{stroke:#dadce0;}</style><linearGradient id="linear-gradient" x1="116.67" y1="14.18" x2="82.22" y2="233" gradientUnits="userSpaceOnUse"><stop offset="0" stop-color="#e6f4ea"/><stop offset="0.83" stop-color="#ceead6"/></linearGradient><linearGradient id="linear-gradient-2" x1="129.27" y1="71.33" x2="94.83" y2="290.15" gradientUnits="userSpaceOnUse"><stop offset="0" stop-color="#e6f4ea"/><stop offset="1" stop-color="#ceead6"/></linearGradient><linearGradient id="linear-gradient-3" x1="44.91" y1="65.48" x2="104.76" y2="274.6" xlink:href="#linear-gradient-2"/><linearGradient id="linear-gradient-4" x1="26.92" y1="27.55" x2="76.52" y2="243.45" xlink:href="#linear-gradient-2"/><clipPath id="clip-path"><circle class="cls-1" cx="251" cy="140" r="28"/></clipPath><linearGradient id="linear-gradient-5" x1="200.43" y1="299" x2="200.43" y2="217.43" gradientUnits="userSpaceOnUse"><stop offset="0.48" stop-color="#f1f3f4"/><stop offset="0.66" stop-color="#e4e6e8"/><stop offset="0.98" stop-color="#c0c4c9"/><stop offset="1" stop-color="#bdc1c6"/></linearGradient><linearGradient id="linear-gradient-6" x1="497.14" y1="216.11" x2="459.09" y2="254.16" gradientUnits="userSpaceOnUse"><stop offset="0" stop-color="#9aa0a6"/><stop offset="1" stop-color="#9aa0a6"/></linearGradient><linearGradient id="linear-gradient-7" x1="493.26" y1="133.46" x2="362.71" y2="269.03" gradientUnits="userSpaceOnUse"><stop offset="0" stop-color="#e8f0fe"/><stop offset="1" stop-color="#d2e3fc"/></linearGradient></defs><g class="cls-2"><g id="Layer_5" data-name="Layer 5"><polygon class="cls-3" points="98.31 253.05 116.44 208.08 107.7 183.94 60.69 183.94 51.94 230.96 70.29 253.05 98.31 253.05"/><path class="cls-4" d="M79.06,181.48Q91.23,20.64,117.7,27.21t-30.51,157Z"/><path class="cls-5" d="M85.4,182.33q43.39-92.64,62-88t-56.3,90Z"/><path class="cls-6" d="M85.59,181.53Q71.35,94.77,52.73,99.37t27.15,84.11Z"/><path class="cls-7" d="M85.21,182q-36.63-49.35-50.13-31-10.51,9.82,44.42,33Z"/><path class="cls-8" d="M52.65,230.43l49.54,11.08-4.12,11H69.83C57.13,236.27,52.52,234,52.65,230.43Z"/><polygon class="cls-9" points="193.06 155.08 132.23 155.18 132.23 252.53 193.06 252.43 193.06 155.08"/><polygon class="cls-10" points="191.95 155.08 123.4 155.08 101.81 252.53 170.36 252.53 191.95 155.08"/><path class="cls-11" d="M514.26,23.22C451.75,65.08,381.91,45.11,371.38,27.8c-40.12,41.31-117,19.64-137.23-1.23-42.64,25.11-108.3,27.26-148.78-3.35,0,0-15.63,13-40.69,12.27"/><rect class="cls-12" x="304.98" y="49.8" width="55.99" height="57.54" transform="translate(222.05 402.21) rotate(-84.36)"/><rect class="cls-13" x="315.6" y="50.61" width="36.67" height="47.98" transform="translate(228.94 400.26) rotate(-84.72)"/><polygon class="cls-14" points="327 49.85 340.37 51.17 339.46 60.46 328.38 59.36 327 49.85"/><rect class="cls-15" x="327.14" y="44.53" width="17.89" height="13.22" transform="translate(252.17 380.57) rotate(-84.36)"/><rect class="cls-12" x="433.31" y="48.25" width="57.54" height="55.99" transform="translate(-4.71 114.14) rotate(-14.01)"/><rect class="cls-13" x="437.66" y="53.85" width="47.98" height="36.67" transform="translate(-3.47 116.89) rotate(-14.38)"/><polygon class="cls-14" points="446.8 51.2 459.83 47.95 462.09 57.01 451.29 59.7 446.8 51.2"/><rect class="cls-15" x="449.17" y="40.42" width="13.22" height="17.89" transform="translate(1.61 111.84) rotate(-14.01)"/><rect class="cls-12" x="159.65" y="47.38" width="57.54" height="55.99" transform="translate(-6.49 18.87) rotate(-5.64)"/><rect class="cls-13" x="164.59" y="52.96" width="47.98" height="36.67" transform="translate(-6.42 20.12) rotate(-6)"/><polygon class="cls-14" points="176.95 48.38 190.31 47.05 191.23 56.34 180.15 57.44 176.95 48.38"/><rect class="cls-15" x="179.49" y="38.92" width="13.22" height="17.89" transform="translate(-3.8 18.52) rotate(-5.64)"/><rect class="cls-16" x="355" y="116" width="56" height="40" rx="8"/><path class="cls-17" d="M359,108l37.49,15a4,4,0,0,1,2.51,3.72V144a4,4,0,0,1-4,4H359Z"/><polygon class="cls-17" points="359 144 407 208 359 208 359 144"/><path class="cls-18" d="M367,204V176l-3.58-64.44a8,8,0,0,0-8-7.56H319V208H299v44h96.69a8,8,0,0,0,8-7.28L407,208H371A4,4,0,0,1,367,204Z"/><path class="cls-19" d="M335,104h.43a8,8,0,0,1,8,7.56L347,176v28a4,4,0,0,1-4,4H299V104Z"/><path class="cls-20" d="M339,176H203l3.58-64.44a8,8,0,0,1,8-7.56H327.43a8,8,0,0,1,8,7.56Z"/><polygon class="cls-12" points="299 200 163 200 203 176 339 176 299 200"/><polygon class="cls-12" points="171 200 163 200 203 176 211 176 171 200"/><rect class="cls-20" x="163" y="200" width="136" height="8"/><path class="cls-16" d="M291,104l5.66-5.66A8,8,0,0,1,302.31,96h25.38a8,8,0,0,1,5.65,2.34L339,104Z"/><path class="cls-17" d="M267,104l5.66-5.66A8,8,0,0,1,278.31,96h25.38a8,8,0,0,1,5.65,2.34L315,104Z"/><polygon class="cls-20" points="239 200 231 200 271 176 279 176 239 200"/><rect class="cls-19" x="223" y="200" width="8" height="8"/><rect class="cls-19" x="263" y="160" width="8" height="16"/><rect class="cls-19" x="271" y="160" width="8" height="16"/><path class="cls-21" d="M265.12,143.2v33a2.7,2.7,0,0,1-1.39,2.36l-36.1,20.06a2.69,2.69,0,0,0-1.39,2.36V208h-5.32V201a2.69,2.69,0,0,1,1.39-2.36l36.1-20.06a2.7,2.7,0,0,0,1.39-2.36v-33Z"/><path class="cls-22" d="M270.44,143.2v33a2.7,2.7,0,0,1-1.39,2.36L233,198.59a2.69,2.69,0,0,0-1.39,2.36V208h-5.32V201a2.69,2.69,0,0,1,1.39-2.36l36.1-20.06a2.7,2.7,0,0,0,1.39-2.36v-33Z"/><path class="cls-23" d="M275.76,143.2v33a2.7,2.7,0,0,1-1.39,2.36l-36.1,20.06a2.69,2.69,0,0,0-1.39,2.36V208h-5.32V201a2.69,2.69,0,0,1,1.39-2.36l36.1-20.06a2.7,2.7,0,0,0,1.39-2.36v-33Z"/><path class="cls-24" d="M281.08,143.2v33a2.7,2.7,0,0,1-1.39,2.36l-36.1,20.06A2.69,2.69,0,0,0,242.2,201V208h-5.32V201a2.69,2.69,0,0,1,1.39-2.36l36.1-20.06a2.7,2.7,0,0,0,1.39-2.36v-33Z"/><path class="cls-25" d="M320,148a10,10,0,0,1,0,20h-4V148Z"/><circle class="cls-26" cx="316" cy="158" r="10"/><path class="cls-19" d="M299,252H174.31a8,8,0,0,1-8-7.28L163,208H299Z"/><rect class="cls-19" x="175.5" y="230" width="112" height="12" rx="6"/><rect class="cls-16" x="304.5" y="110.87" width="27" height="27" rx="8"/><rect class="cls-27" x="214.92" y="110.87" width="16" height="39.25" rx="4"/><line class="cls-27" x1="214.92" y1="120.01" x2="230.92" y2="120.01"/><line class="cls-27" x1="214.92" y1="126.7" x2="230.92" y2="126.7"/><line class="cls-27" x1="214.92" y1="134.24" x2="230.92" y2="134.24"/><path class="cls-16" d="M271,112H251v8.41a28,28,0,0,0,0,39.18V168h20a28,28,0,0,0,0-56Z"/><circle class="cls-17" cx="251" cy="140" r="28"/><g class="cls-28"><circle class="cls-29" cx="267" cy="140" r="16"/></g><polygon class="cls-20" points="367 166.57 361 160.57 351 170.57 367 186.57 367 166.57"/><rect class="cls-19" x="331.63" y="223.99" width="24.7" height="14.82" transform="translate(-62.87 311.01) rotate(-45)"/><polygon class="cls-20" points="203 193.97 214.92 185.33 194.84 180.89 183.25 187.85 203 193.97"/><rect class="cls-30" x="43" y="252" width="496" height="2"/><line class="cls-31" x1="287.5" y1="233.88" x2="175.5" y2="233.88"/><path class="cls-32" d="M281.35,234.88H182.68a1.27,1.27,0,0,0-.28,0c-37.18,10.76-60.52,49.7-63.8,59.44a1,1,0,0,0,.91,1.27H221.59a.65.65,0,0,0,.67-.46c1.85-11.22,27-43.33,59.5-58.45A1,1,0,0,0,281.35,234.88Z"/><path class="cls-13" d="M253.43,242.46H185.3c-29.83,10.23-46.72,41.48-46.72,41.48h72.63S227.25,257.76,253.43,242.46Z"/><path class="cls-33" d="M175,253.6c-3,2.19-6,4.43-8.12,7.29s-3.27,6.51-2.12,9.79c1.38,3.91,5.82,6.53,10.37,7.08s9.18-.63,13.35-2.36c8.09-3.36,15.44-9.42,16.92-17.26a7.33,7.33,0,0,0-.81-5.63,9,9,0,0,0-4.7-3,21,21,0,0,0-19.35,3.47c-2.36,2-4.19,4.73-3.89,7.6.26,2.41,2,4.53,4.05,6.1a23.45,23.45,0,0,0,13.41,4.29,39.28,39.28,0,0,0,14.13-2.52c6-2.13,12-5.9,13.18-11.53a6.47,6.47,0,0,0-.09-3.27c-1.14-3.58-5.87-5.13-10-5.5a40.24,40.24,0,0,0-24.47,5.62c-3.85,2.38-7.27,5.57-8.67,9.54a9.85,9.85,0,0,0,3.34,11.37c3.26,2.26,7.79,2.38,11.87,1.83a43,43,0,0,0,15.47-5.18c2.75-1.57,5.34-3.51,6.84-6.09a7.5,7.5,0,0,0-.12-8.29c-1.42-1.86-3.82-2.92-6.21-3.64-5.38-1.61-11.45-1.81-16.64.24s-9.28,6.57-9.57,11.62c-.28,4.87,2.77,9.33,5.7,13.44"/><line class="cls-34" x1="161.5" y1="188" x2="132.26" y2="219.6"/><line class="cls-34" x1="139.27" y1="188" x2="154.5" y2="219.6"/><path class="cls-30" d="M484.42,184.4c0,2.74,31.12,68.64,31.12,68.64H467Z"/><path class="cls-35" d="M481,176.9c0,3,34.52,76.14,34.52,76.14h-53.8Z"/><polygon class="cls-36" points="494.49 132.23 392.24 132.23 378.06 253.04 480.31 253.04 494.49 132.23"/><polygon class="cls-37" points="481.68 144.21 401.85 144.21 390.61 239.69 470.44 239.69 481.68 144.21"/><polygon class="cls-38" points="522.17 187.39 458.19 187.46 458.19 252.53 522.17 252.46 522.17 187.39"/><polygon class="cls-39" points="522.17 187.39 435.91 187.39 421.32 252.53 507.58 252.53 522.17 187.39"/></g></g></svg>