<svg xmlns="http://www.w3.org/2000/svg" xmlns:xlink="http://www.w3.org/1999/xlink" viewBox="0 0 592 300"><defs><style>.cls-1,.cls-11,.cls-17,.cls-20,.cls-21,.cls-23,.cls-28,.cls-29,.cls-5{fill:none;}.cls-1{clip-rule:evenodd;}.cls-2,.cls-26{fill:#fff;}.cls-3{fill:#dadce0;}.cls-4{isolation:isolate;}.cls-5{stroke:#feefc3;}.cls-11,.cls-21,.cls-23,.cls-26,.cls-29,.cls-5{stroke-miterlimit:10;}.cls-20,.cls-23,.cls-26,.cls-28,.cls-5{stroke-width:2px;}.cls-10,.cls-12,.cls-6,.cls-7{fill-rule:evenodd;}.cls-6{fill:url(#linear-gradient);}.cls-7{fill:url(#linear-gradient-2);}.cls-8{clip-path:url(#clip-path);}.cls-9{fill:#f1f1f2;}.cls-10{fill:#e0e2e6;opacity:0.66;}.cls-11,.cls-29{stroke:#9aa0a6;}.cls-11,.cls-17,.cls-20,.cls-28{stroke-linecap:round;}.cls-11{stroke-width:2.68px;}.cls-12,.cls-30{fill:#e8eaed;}.cls-13{fill:#5f6368;}.cls-14{fill:#80868b;}.cls-15{fill:#9aa0a6;}.cls-16{fill:#3c4043;}.cls-17{stroke:#3c4043;}.cls-17,.cls-20,.cls-28{stroke-linejoin:round;}.cls-18{fill:#ea4335;}.cls-19{clip-path:url(#clip-path-2);}.cls-20{stroke:#fad2cf;}.cls-21{stroke:#e8f0fe;stroke-width:7.85px;}.cls-22{fill:url(#linear-gradient-3);}.cls-23{stroke:#dadce0;opacity:0;}.cls-24{fill:#e8f0fe;}.cls-25{fill:#d2e3fc;opacity:0.3;mix-blend-mode:multiply;}.cls-26,.cls-28{stroke:#ee675c;}.cls-27{fill:#fad2cf;}.cls-29{stroke-width:2.14px;}.cls-31{clip-path:url(#clip-path-3);}.cls-32{fill:#dadbdf;}.cls-33{fill:#bdc1c6;opacity:0.5;}.cls-34{clip-path:url(#clip-path-4);}.cls-35{clip-path:url(#clip-path-5);}.cls-36{clip-path:url(#clip-path-6);}.cls-37{clip-path:url(#clip-path-7);}.cls-38{clip-path:url(#clip-path-8);}.cls-39{clip-path:url(#clip-path-9);}</style><linearGradient id="linear-gradient" x1="138.84" y1="95.79" x2="161.19" y2="182.58" gradientUnits="userSpaceOnUse"><stop offset="0" stop-color="#e6f4ea"/><stop offset="1" stop-color="#ceead6"/></linearGradient><linearGradient id="linear-gradient-2" x1="202.19" y1="143.47" x2="180.22" y2="196.4" xlink:href="#linear-gradient"/><clipPath id="clip-path"><path class="cls-1" d="M179.77,212.34,191.67,200h-41l12.13,12.09a29.51,29.51,0,1,0,16.93.25Z"/></clipPath><clipPath id="clip-path-2"><rect class="cls-2" x="232" y="135" width="128" height="84" rx="2"/></clipPath><linearGradient id="linear-gradient-3" x1="520.17" y1="219.1" x2="490.78" y2="249.24" gradientUnits="userSpaceOnUse"><stop offset="0" stop-color="#e8f0fe"/><stop offset="1" stop-color="#d2e3fc"/></linearGradient><clipPath id="clip-path-3"><path class="cls-3" d="M189.93,49.5h0a36.35,36.35,0,0,1,36.35,36.35v8a0,0,0,0,1,0,0H153.59a0,0,0,0,1,0,0v-8A36.35,36.35,0,0,1,189.93,49.5Z" transform="translate(-9.13 111.49) rotate(-31.99)"/></clipPath><clipPath id="clip-path-4"><path class="cls-1" d="M-208.19-1108.19q8.41-13.35,17.32-15.28t15.79,4.52q3.39-3.65,11-1.18t8.3,7.25q8.66-1.48,12.3,1.61c2.43,2.06,3.09,3.08,2,3.08q-21.89,3.32-33.11,3.31T-208.19-1108.19Z"/></clipPath><clipPath id="clip-path-5"><path class="cls-1" d="M-169.07-1085.26a12.63,12.63,0,0,1,12.67,12.59c-4.68-.06-20.25,0-25.33,0A12.63,12.63,0,0,1-169.07-1085.26Z"/></clipPath><clipPath id="clip-path-6"><path class="cls-1" d="M-169.07-1077.31a37.88,37.88,0,0,0,38-37.76c-14.05.17-60.76.14-76,0A37.89,37.89,0,0,0-169.07-1077.31Z"/></clipPath><clipPath id="clip-path-7"><path class="cls-1" d="M-199.51-1134.63c3.78,1.69,7.44,1.69,8.19,0s-1.71-4.41-5.48-6.1-7.45-1.68-8.19,0S-203.28-1136.31-199.51-1134.63Z"/></clipPath><clipPath id="clip-path-8"><path class="cls-1" d="M-144.58-1133.09a4.58,4.58,0,0,0,4.58-4.58,4.58,4.58,0,0,0-4.58-4.58,4.58,4.58,0,0,0-4.57,4.58A4.58,4.58,0,0,0-144.58-1133.09Z"/></clipPath><clipPath id="clip-path-9"><path class="cls-1" d="M-170.49-1149.53c2.35-1.45,4-.57,4.87,2.62q0-13,4.29-11.93t0,11.93q5.91-6.4,7.09-.54,1.1,5.48-10.17,7.63a11.74,11.74,0,0,0-.05,3,1.08,1.08,0,0,1-1,1.11h-.22a1.2,1.2,0,0,1-1.05-1.33h0l.34-2.74Q-174-1147.36-170.49-1149.53Z"/></clipPath></defs><g class="cls-4"><g id="Layer_5" data-name="Layer 5"><rect class="cls-5" x="63.46" y="183.22" width="22.6" height="86.57"/><rect class="cls-5" x="86.07" y="157.79" width="22.6" height="112"/><rect class="cls-5" x="108.67" y="195.28" width="22.6" height="74.51"/><rect class="cls-5" x="131.28" y="186.29" width="22.6" height="83.5"/><path class="cls-6" d="M133.08,122.8l11.86,47.55a12.5,12.5,0,1,0,24.25-6l-11.85-47.55a12.5,12.5,0,0,0-24.26,6Z"/><path class="cls-7" d="M182.7,159.15l-5.45,10.69a12.5,12.5,0,0,0,22.27,11.35L205,170.5a12.5,12.5,0,1,0-22.27-11.35Z"/><g class="cls-8"><rect class="cls-9" x="140.73" y="194.68" width="60.33" height="75.32"/><path class="cls-10" d="M141.53,236q13.29,29.25,45.85,28.92c-13.13,8.09-26.2,5.94-37-2.37Q140.25,252.5,141.53,236Z"/></g><line class="cls-11" x1="166.4" y1="197" x2="155.4" y2="158"/><line class="cls-11" x1="176.4" y1="200" x2="189.4" y2="173"/><path class="cls-12" d="M171.15,204c-11.17,0-20.44-2.21-20.44-4.14S160,197,171.15,197s20.52.93,20.52,2.86S182.32,204,171.15,204Z"/><rect class="cls-13" x="252.15" y="105" width="213.78" height="148" rx="8"/><rect class="cls-14" x="249.07" y="105" width="213.78" height="148" rx="8"/><rect class="cls-15" x="172" y="253" width="296" height="16" rx="4"/><rect class="cls-13" x="380" y="253" width="88" height="16" rx="4"/><rect class="cls-2" x="257.29" y="117.33" width="197.33" height="127.44" rx="4"/><circle class="cls-16" cx="350" cy="111" r="2"/><line class="cls-17" x1="358" y1="111" x2="374" y2="111"/><rect class="cls-18" x="230" y="125" width="132" height="96" rx="4"/><rect class="cls-2" x="232" y="135" width="128" height="84" rx="2"/><g class="cls-19"><path class="cls-20" d="M220.09,186.17c13.47-6,26.11-13.81,42.36-1.73,16,11.92,29.67,8.86,41.1.73s22.71-16.9,32.46-9.74,9.5,14.92,29.65,11.8"/><path class="cls-20" d="M227.44,205.21c6.32-5.08,9.61-11.88,17.78-5.08s11.71,9.64,17.29,7.22,13.3-9.69,20.19-6.19,14.51,11.79,24.37,8,13.77-13.46,25.12-11,13.46,7.13,19.89,6.63,8.2-3.76,12.48-8.86"/><path class="cls-20" d="M226.21,161.91c20.32,20,25.95-7.37,36.42,1s14.69,19.25,26.79,10.65,18.61-17.13,32.8-13.2c21.6,6,35.12-3,33.23-1.83"/><path class="cls-20" d="M371.28,147.44c-12.71-6.31-22.76-8.51-30.29-4.32-10.72,5.95-24,3.9-32.93,1.12s-14.23-.58-24.28,5.29-19-5.93-27.69-7.33-16,6.22-26.45,8.18"/></g><circle class="cls-2" cx="238" cy="130" r="2"/><circle class="cls-2" cx="246" cy="130" r="2"/><circle class="cls-2" cx="254" cy="130" r="2"/><circle class="cls-21" cx="500.53" cy="235.07" r="20.99"/><path class="cls-22" d="M500.53,210.15c-.84,0-1.66,0-2.47.13v7.92a16.8,16.8,0,0,1,2.47-.2,17.07,17.07,0,0,1,0,34.14,18.29,18.29,0,0,1-2.47-.2v7.92c.81.08,1.63.12,2.47.12a24.92,24.92,0,0,0,0-49.83Z"/><path class="cls-23" d="M469.28,203.45V196a4.71,4.71,0,0,1,4.71-4.71h8.92a4.7,4.7,0,0,0,4.7-4.71v-.25a4.7,4.7,0,0,0-4.7-4.7h-31a4.71,4.71,0,0,1-4.71-4.71v.18a4.71,4.71,0,0,1,4.71-4.71h37.41a4.69,4.69,0,0,0,4.7-4.7h0a4.7,4.7,0,0,0-4.7-4.71h-9.53"/><rect class="cls-24" x="443.55" y="201.43" width="54.79" height="67.46"/><rect class="cls-25" x="485.09" y="201.43" width="13.26" height="67.46"/><rect class="cls-26" x="340" y="157" width="74" height="72" rx="2"/><rect class="cls-27" x="346" y="171" width="62" height="52" rx="2"/><circle class="cls-27" cx="346" cy="162" r="2"/><circle class="cls-27" cx="354" cy="162" r="2"/><circle class="cls-27" cx="362" cy="162" r="2"/><line class="cls-28" x1="362" y1="182" x2="392" y2="212"/><line class="cls-28" x1="392" y1="182" x2="362" y2="212"/><path class="cls-29" d="M167.29,53.83C140,65.82,77,90.92,77,172c0,24.2,14.52,68,38.83,92.87"/><path class="cls-3" d="M170.59,26.48l-12.78,8a7.53,7.53,0,0,1,12.78-8Z"/><rect class="cls-30" x="158.82" y="26.35" width="31.42" height="41.35" transform="translate(1.59 99.59) rotate(-31.99)"/><rect class="cls-3" x="160.59" y="32.5" width="8.18" height="41.35" transform="matrix(0.85, -0.53, 0.53, 0.85, -3.17, 95.31)"/><path class="cls-3" d="M189.93,49.5h0a36.35,36.35,0,0,1,36.35,36.35v8a0,0,0,0,1,0,0H153.59a0,0,0,0,1,0,0v-8A36.35,36.35,0,0,1,189.93,49.5Z" transform="translate(-9.13 111.49) rotate(-31.99)"/><g class="cls-31"><path class="cls-30" d="M201.32,42.38h0a36.35,36.35,0,0,1,36.35,36.35v8a0,0,0,0,1,0,0H165a0,0,0,0,1,0,0v-8a36.35,36.35,0,0,1,36.35-36.35Z" transform="translate(-3.64 116.45) rotate(-31.99)"/></g><rect class="cls-32" x="76.95" y="260.74" width="79.53" height="8.26"/><rect class="cls-33" x="76.95" y="260.74" width="8.26" height="8.26"/><rect class="cls-30" x="48" y="269" width="496" height="2"/></g></g></svg>