<svg width="360" height="168" viewBox="0 0 360 168" fill="none" xmlns="http://www.w3.org/2000/svg"><g clip-path="url(#a)"><rect x="159.5" y="21.5" width="136" height="125" rx="9.5" fill="#fff" stroke="#1F1F1F"/><path d="M159 37h137" stroke="#1F1F1F"/><rect x="166.357" y="27.357" width="5.286" height="5.286" rx="2.643" fill="#1F1F1F" stroke="#1F1F1F" stroke-width=".714"/><rect x="175.5" y="27.5" width="5" height="5" rx="2.5" stroke="#1F1F1F"/><rect x="184.502" y="27.5" width="5" height="5" rx="2.5" stroke="#1F1F1F"/><path d="M198.64 67.205c0-.638-.057-1.252-.164-1.841H190v3.481h4.844a4.142 4.142 0 0 1-1.796 2.716v2.259h2.908c1.702-1.567 2.684-3.874 2.684-6.615z" fill="#4285F4"/><path d="M190 76c2.43 0 4.467-.806 5.956-2.18l-2.908-2.259c-.806.54-1.837.86-3.048.86-2.344 0-4.328-1.584-5.036-3.711h-3.007v2.332A8.997 8.997 0 0 0 190 76z" fill="#34A853"/><path d="M184.964 68.71a5.41 5.41 0 0 1-.282-1.71c0-.593.102-1.17.282-1.71v-2.332h-3.007a9.004 9.004 0 0 0 0 8.084l3.007-2.332z" fill="#FBBC05"/><path d="M190 61.58c1.321 0 2.508.454 3.44 1.346l2.582-2.582C194.463 58.892 192.426 58 190 58a8.997 8.997 0 0 0-8.043 4.958l3.007 2.332c.708-2.127 2.692-3.71 5.036-3.71z" fill="#EA4335"/></g><rect x="66.5" y="49.5" width="49" height="97" rx="9.5" fill="#fff" stroke="#1F1F1F"/><path d="M116 63a2 2 0 0 1 2 2v9a2 2 0 0 1-2 2V63zM116 81a2 2 0 0 1 2 2v5a2 2 0 0 1-2 2v-9z" fill="#1F1F1F"/><circle cx="91" cy="53" r="1" fill="#1F1F1F"/><rect x="75.382" y="81.709" width="32.073" height="32.073" rx="16.036" fill="#6DD58C"/><path d="M83.723 97.589l5.4 5.4 10.828-10.827M133 107c-32.745 10.286-37.8 40-37.8 40s-3.562-13.714-16.2-14.904" stroke="#1F1F1F" stroke-linecap="round" stroke-linejoin="round"/><mask id="b" fill="#fff"><path fill-rule="evenodd" clip-rule="evenodd" d="M173.612 90.976c4.082 1.065 5.426 6.083 2.424 9.046l-16.807 16.592c-3.011 2.973-8.135 1.65-9.215-2.379l-.639-2.386-3.758 1.007a4 4 0 0 1-4.899-2.829l-2.695-10.057a4 4 0 0 1 2.829-4.899l3.758-1.007-.64-2.386c-1.079-4.029 2.697-7.736 6.791-6.667l22.851 5.965z"/></mask><path fill-rule="evenodd" clip-rule="evenodd" d="M173.612 90.976c4.082 1.065 5.426 6.083 2.424 9.046l-16.807 16.592c-3.011 2.973-8.135 1.65-9.215-2.379l-.639-2.386-3.758 1.007a4 4 0 0 1-4.899-2.829l-2.695-10.057a4 4 0 0 1 2.829-4.899l3.758-1.007-.64-2.386c-1.079-4.029 2.697-7.736 6.791-6.667l22.851 5.965z" fill="#fff"/><path d="M176.036 100.022l-.702-.712.702.712zm-2.424-9.046l-.252.968.252-.968zm-14.383 25.638l.703.711-.703-.711zm-9.854-4.765l-.259-.966.966-.259.259.966-.966.259zm-8.657-1.822l.966-.258-.966.258zm-2.695-10.057l-.966.259.966-.259zm6.587-5.906l.966-.259.258.966-.965.259-.259-.966zm6.151-9.053l-.252.967.252-.967zm24.573 14.3a4.362 4.362 0 0 0-1.974-7.368l.505-1.935c4.832 1.262 6.428 7.217 2.874 10.726l-1.405-1.423zm-16.807 16.591l16.807-16.591 1.405 1.423-16.807 16.591-1.405-1.423zm-7.547-1.926c.873 3.257 5.057 4.383 7.547 1.926l1.405 1.423c-3.534 3.489-9.597 1.97-10.883-2.831l1.931-.518zm-.639-2.386l.639 2.386-1.931.518-.64-2.386 1.932-.518zm-4.983.3l3.758-1.007.518 1.932-3.758 1.007-.518-1.932zm-3.674-2.121a3 3 0 0 0 3.674 2.121l.518 1.932a5 5 0 0 1-6.124-3.536l1.932-.517zm-2.695-10.058l2.695 10.058-1.932.517-2.695-10.057 1.932-.518zm2.122-3.674a3 3 0 0 0-2.122 3.674l-1.932.518a5.001 5.001 0 0 1 3.536-6.124l.518 1.932zm3.758-1.007l-3.758 1.007-.518-1.932 3.758-1.007.518 1.932zm.067-3.61l.64 2.385-1.932.518-.64-2.386 1.932-.518zm5.573-5.442c-3.385-.883-6.445 2.185-5.573 5.441l-1.932.518c-1.286-4.801 3.205-9.148 8.01-7.894l-.505 1.935zm22.851 5.966l-22.851-5.966.505-1.935 22.851 5.965-.505 1.936z" fill="#1F1F1F" mask="url(#b)"/><path d="M42.047 69.533c2.592 1.642 7.198 6.189 4.881 11.24-2.896 6.312-11.96 4.94-12.375-.357-.413-5.298 11.595-8.202 22.003 5.124" stroke="#1F1F1F" stroke-linecap="round"/><path d="M291.543 49.293a5.934 5.934 0 0 1 7.532 0l.313.257a5.935 5.935 0 0 0 4.117 1.338l.405-.024a5.935 5.935 0 0 1 6.094 4.427l.102.392a5.933 5.933 0 0 0 2.544 3.502l.342.219a5.934 5.934 0 0 1 2.327 7.163l-.148.378a5.935 5.935 0 0 0 0 4.329l.148.377a5.934 5.934 0 0 1-2.327 7.164l-.342.218a5.934 5.934 0 0 0-2.544 3.502l-.102.393a5.935 5.935 0 0 1-6.094 4.427l-.405-.024a5.935 5.935 0 0 0-4.117 1.337l-.313.258a5.934 5.934 0 0 1-7.532 0l-.313-.258a5.935 5.935 0 0 0-4.117-1.337l-.405.024a5.935 5.935 0 0 1-6.094-4.427l-.102-.393a5.934 5.934 0 0 0-2.544-3.502l-.342-.218a5.933 5.933 0 0 1-2.327-7.164l.148-.377a5.935 5.935 0 0 0 0-4.33l-.148-.377a5.933 5.933 0 0 1 2.327-7.163l.342-.219a5.933 5.933 0 0 0 2.544-3.502l.102-.392a5.935 5.935 0 0 1 6.094-4.427l.405.024a5.935 5.935 0 0 0 4.117-1.338l.313-.257z" fill="#0B57D0" filter="url(#c)"/><path d="M295.085 74.39l-6.149 3.074V61.946a1.5 1.5 0 0 1 1.5-1.5h9.746a1.5 1.5 0 0 1 1.5 1.5v15.518l-6.149-3.075-.224-.111-.224.111z" stroke="#fff"/><path d="M326.446 78.272l-17.391 26.949" stroke="#1F1F1F" stroke-linecap="round"/><mask id="d" fill="#fff"><path fill-rule="evenodd" clip-rule="evenodd" d="M56.327 38.182a5 5 0 0 0-5 5v17.49a5 5 0 0 0 5 5h21.346l4.02 4.02c.63.63 1.707.184 1.707-.706V43.181a5 5 0 0 0-5-5H56.327z"/></mask><path fill-rule="evenodd" clip-rule="evenodd" d="M56.327 38.182a5 5 0 0 0-5 5v17.49a5 5 0 0 0 5 5h21.346l4.02 4.02c.63.63 1.707.184 1.707-.706V43.181a5 5 0 0 0-5-5H56.327z" fill="#fff"/><path d="M77.673 65.673l.707-.708-.293-.292h-.414v1zm5.727-5.728h1v-1h-1v1zm0 0h-1v1h1v-1zM52.327 43.182a4 4 0 0 1 4-4v-2a6 6 0 0 0-6 6h2zm0 17.49v-17.49h-2v17.49h2zm4 4a4 4 0 0 1-4-4h-2a6 6 0 0 0 6 6v-2zm21.346 0H56.327v2h21.346v-2zm4.727 4.314l-4.02-4.02-1.414 1.414 4.02 4.02 1.414-1.415zm0 0L80.986 70.4c1.26 1.26 3.414.367 3.414-1.415h-2zm0-9.04v9.04h2v-9.04h-2zm1 1v-2 2zm-1-17.764v16.763h2V43.182h-2zm-4-4a4 4 0 0 1 4 4h2a6 6 0 0 0-6-6v2zm-22.073 0H78.4v-2H56.327v2z" fill="#1F1F1F" mask="url(#d)"/><path d="M61.561 42.509c-1.836-.8-3.689 1.052-2.888 2.888l6.419 14.726c.784 1.799 3.343 1.775 4.067-.038l1.678-4.196a2.183 2.183 0 0 1 1.217-1.216l4.195-1.678c1.813-.725 1.837-3.283.038-4.067l-14.726-6.42z" fill="#FCBD00"/><path d="M67.002 50.755L62.547 46.3" stroke="#1F1F1F" stroke-linecap="round"/><rect x="186" y="100" width="38" height="5" rx="2.5" fill="#E3E3E3"/><rect x="186" y="111" width="51" height="5" rx="2.5" fill="#E3E3E3"/><defs><filter id="c" x="271.182" y="44.238" width="48.253" height="49.743" filterUnits="userSpaceOnUse" color-interpolation-filters="sRGB"><feFlood flood-opacity="0" result="BackgroundImageFix"/><feGaussianBlur in="BackgroundImageFix" stdDeviation="1.853"/><feComposite in2="SourceAlpha" operator="in" result="effect1_backgroundBlur_5238_3753"/><feBlend in="SourceGraphic" in2="effect1_backgroundBlur_5238_3753" result="shape"/></filter><clipPath id="a"><path fill="#fff" transform="translate(159 21)" d="M0 0h137v126H0z"/></clipPath></defs></svg>