<svg width="360" height="168" viewBox="0 0 360 168" fill="none" xmlns="http://www.w3.org/2000/svg">
<g clip-path="url(#clip0_5178_72886)">
<path d="M136 120L272 120C278.627 120 284 114.627 284 108V20C284 13.3726 278.627 8 272 8L136 8C129.373 8 124 13.3726 124 20V108C124 114.627 129.373 120 136 120Z" fill="white" stroke="#1F1F1F" stroke-miterlimit="10"/>
<path d="M256 22C257.105 22 258 21.1046 258 20C258 18.8954 257.105 18 256 18C254.895 18 254 18.8954 254 20C254 21.1046 254.895 22 256 22Z" fill="#1F1F1F"/>
<path d="M264 22C265.105 22 266 21.1046 266 20C266 18.8954 265.105 18 264 18C262.895 18 262 18.8954 262 20C262 21.1046 262.895 22 264 22Z" fill="#1F1F1F"/>
<path d="M272 22C273.105 22 274 21.1046 274 20C274 18.8954 273.105 18 272 18C270.895 18 270 18.8954 270 20C270 21.1046 270.895 22 272 22Z" fill="#1F1F1F"/>
<path d="M140 150V50C140 44.4772 135.523 40 130 40H86C80.4772 40 76 44.4772 76 50V150C76 155.523 80.4772 160 86 160H130C135.523 160 140 155.523 140 150Z" fill="white" stroke="#1F1F1F" stroke-miterlimit="10"/>
<path d="M140 64C141.104 64 142 64.896 142 66V74C142 75.104 141.104 76 140 76V64Z" fill="#1F1F1F" stroke="#1F1F1F" stroke-miterlimit="10"/>
<path d="M140 84C141.104 84 142 84.896 142 86V102C142 103.104 141.104 104 140 104V84Z" fill="#1F1F1F" stroke="#1F1F1F" stroke-miterlimit="10"/>
<path d="M108 76C121.255 76 132 86.745 132 100C132 113.255 121.255 124 108 124C94.745 124 84 113.255 84 100C84 86.745 94.745 76 108 76Z" fill="#0B57D0"/>
<path d="M96 100L104 108L120 92" stroke="white" stroke-linecap="round" stroke-linejoin="round"/>
<path d="M168 44V32C168 29.791 169.791 28 172 28H184" stroke="#1F1F1F" stroke-linecap="round" stroke-linejoin="round"/>
<path d="M196 36H180C177.791 36 176 37.7909 176 40V56C176 58.2091 177.791 60 180 60H196C198.209 60 200 58.2091 200 56V40C200 37.7909 198.209 36 196 36Z" fill="white" stroke="#1F1F1F" stroke-linecap="round" stroke-linejoin="round"/>
<path d="M160 64H248" stroke="#DC362E" stroke-width="1.044" stroke-linecap="round" stroke-linejoin="round"/>
<path d="M224 28H236C238.209 28 240 29.791 240 32V44" stroke="#1F1F1F" stroke-linecap="round" stroke-linejoin="round"/>
<path d="M240 84V96C240 98.209 238.209 100 236 100H224" stroke="#1F1F1F" stroke-linecap="round" stroke-linejoin="round"/>
<path d="M184 100H172C169.791 100 168 98.209 168 96V84" stroke="#1F1F1F" stroke-linecap="round" stroke-linejoin="round"/>
<path d="M228 36H212C209.791 36 208 37.7909 208 40V56C208 58.2091 209.791 60 212 60H228C230.209 60 232 58.2091 232 56V40C232 37.7909 230.209 36 228 36Z" fill="white" stroke="#1F1F1F" stroke-linecap="round" stroke-linejoin="round"/>
<path d="M196 68H180C177.791 68 176 69.7909 176 72V88C176 90.2091 177.791 92 180 92H196C198.209 92 200 90.2091 200 88V72C200 69.7909 198.209 68 196 68Z" fill="white" stroke="#1F1F1F" stroke-linecap="round" stroke-linejoin="round"/>
<path d="M232 84H224V92H232V84Z" fill="#1F1F1F" stroke="#1F1F1F" stroke-width="1.2" stroke-linecap="round" stroke-linejoin="round"/>
<path d="M216 84H208V92H216V84Z" fill="#1F1F1F" stroke="#1F1F1F" stroke-width="1.2" stroke-linecap="round" stroke-linejoin="round"/>
<path d="M216 68H208V76H216V68Z" fill="#1F1F1F" stroke="#1F1F1F" stroke-width="1.2" stroke-linecap="round" stroke-linejoin="round"/>
<path d="M232 68H224V76H232V68Z" fill="#1F1F1F" stroke="#1F1F1F" stroke-width="1.2" stroke-linecap="round" stroke-linejoin="round"/>
<path d="M224 76H216V84H224V76Z" fill="#1F1F1F" stroke="#1F1F1F" stroke-width="1.2" stroke-linecap="round" stroke-linejoin="round"/>
<path d="M256 132H272C285.255 132 296 121.255 296 108" stroke="#1F1F1F" stroke-linecap="round" stroke-linejoin="round"/>
<path d="M64 68V48C64 36.954 72.954 28 84 28" stroke="#1F1F1F" stroke-linecap="round" stroke-linejoin="round"/>
<path d="M108 50C109.105 50 110 49.1046 110 48C110 46.8954 109.105 46 108 46C106.895 46 106 46.8954 106 48C106 49.1046 106.895 50 108 50Z" fill="#1F1F1F"/>
</g>
<defs>
<clipPath id="clip0_5178_72886">
<rect width="360" height="168" fill="white"/>
</clipPath>
</defs>
</svg>
