<svg width="360" height="168" viewBox="0 0 360 168" fill="none" xmlns="http://www.w3.org/2000/svg"><g clip-path="url(#a)"><path d="M136 120h136c6.627 0 12-5.373 12-12V20c0-6.627-5.373-12-12-12H136c-6.627 0-12 5.373-12 12v88c0 6.627 5.373 12 12 12z" fill="#fff" stroke="#1F1F1F" stroke-miterlimit="10"/><path d="M256 22a2 2 0 1 0 0-4 2 2 0 0 0 0 4zm8 0a2 2 0 1 0 0-4 2 2 0 0 0 0 4zm8 0a2 2 0 1 0 0-4 2 2 0 0 0 0 4z" fill="#1F1F1F"/><path d="M140 150V50c0-5.523-4.477-10-10-10H86c-5.523 0-10 4.477-10 10v100c0 5.523 4.477 10 10 10h44c5.523 0 10-4.477 10-10z" fill="#fff" stroke="#1F1F1F" stroke-miterlimit="10"/><path d="M140 64a2 2 0 0 1 2 2v8a2 2 0 0 1-2 2V64zm0 20a2 2 0 0 1 2 2v16a2 2 0 0 1-2 2V84z" fill="#1F1F1F" stroke="#1F1F1F" stroke-miterlimit="10"/><path d="M108 76c13.255 0 24 10.745 24 24s-10.745 24-24 24-24-10.745-24-24 10.745-24 24-24z" fill="#0B57D0"/><path d="M96 100l8 8 16-16" stroke="#fff" stroke-linecap="round" stroke-linejoin="round"/><path d="M168 44V32a4 4 0 0 1 4-4h12" stroke="#1F1F1F" stroke-linecap="round" stroke-linejoin="round"/><path d="M196 36h-16a4 4 0 0 0-4 4v16a4 4 0 0 0 4 4h16a4 4 0 0 0 4-4V40a4 4 0 0 0-4-4z" fill="#fff" stroke="#1F1F1F" stroke-linecap="round" stroke-linejoin="round"/><path d="M160 64h88" stroke="#DC362E" stroke-width="1.044" stroke-linecap="round" stroke-linejoin="round"/><path d="M224 28h12a4 4 0 0 1 4 4v12m0 40v12a4 4 0 0 1-4 4h-12m-40 0h-12a4 4 0 0 1-4-4V84" stroke="#1F1F1F" stroke-linecap="round" stroke-linejoin="round"/><path d="M228 36h-16a4 4 0 0 0-4 4v16a4 4 0 0 0 4 4h16a4 4 0 0 0 4-4V40a4 4 0 0 0-4-4zm-32 32h-16a4 4 0 0 0-4 4v16a4 4 0 0 0 4 4h16a4 4 0 0 0 4-4V72a4 4 0 0 0-4-4z" fill="#fff" stroke="#1F1F1F" stroke-linecap="round" stroke-linejoin="round"/><path d="M232 84h-8v8h8v-8zm-16 0h-8v8h8v-8zm0-16h-8v8h8v-8zm16 0h-8v8h8v-8zm-8 8h-8v8h8v-8z" fill="#1F1F1F" stroke="#1F1F1F" stroke-width="1.2" stroke-linecap="round" stroke-linejoin="round"/><path d="M256 132h16c13.255 0 24-10.745 24-24M64 68V48c0-11.046 8.954-20 20-20" stroke="#1F1F1F" stroke-linecap="round" stroke-linejoin="round"/><path d="M108 50a2 2 0 1 0 0-4 2 2 0 0 0 0 4z" fill="#1F1F1F"/></g><defs><clipPath id="a"><path fill="#fff" d="M0 0h360v168H0z"/></clipPath></defs></svg>