<svg width="360" height="168" viewBox="0 0 360 168" fill="none" xmlns="http://www.w3.org/2000/svg">
<g clip-path="url(#clip0_5178_72894)">
<path d="M218 60C219.1 60 220 60.9 220 62V86C220 87.1 219.1 88 218 88V60Z" fill="#1F1F1F" stroke="#1F1F1F" stroke-miterlimit="10"/>
<path d="M218 36C219.1 36 220 36.9 220 38V50C220 51.1 219.1 52 218 52V36Z" fill="#1F1F1F" stroke="#1F1F1F" stroke-miterlimit="10"/>
<path d="M155.891 121.911C151.711 124.811 143.931 130.751 137.401 127.071C130.871 123.391 128.561 115.111 132.241 108.581C136.681 100.691 143.141 95.0505 151.491 93.2805C159.301 91.6205 166.281 93.9005 171.051 96.2705C177.121 99.2805 182.721 103.751 187.161 108.881L179.831 128.721C179.461 129.461 165.121 127.591 161.731 122.501C160.571 120.761 158.061 120.401 155.891 121.911Z" fill="#E1E3E1" stroke="#1F1F1F" stroke-miterlimit="10"/>
<path fill-rule="evenodd" clip-rule="evenodd" d="M201.122 99.9398C201.122 99.9398 201.122 99.9498 190.142 107.92L201.132 99.9498C205.532 106.02 204.182 114.51 198.112 118.91C192.072 123.29 183.642 121.97 179.222 115.99C179.222 115.99 179.222 115.99 179.222 115.98C179.182 115.93 179.092 115.81 178.932 115.62C178.622 115.25 178.092 114.64 177.352 113.87C175.842 112.32 173.512 110.18 170.392 108.07C164.212 103.9 155.072 99.8898 142.802 100.55C135.312 100.95 128.922 95.2098 128.522 87.7198C128.122 80.2298 133.862 73.8398 141.352 73.4398C160.752 72.3998 175.652 78.8598 185.592 85.5698C190.532 88.9098 194.282 92.3198 196.842 94.9598C198.122 96.2798 199.122 97.4198 199.842 98.2898C200.202 98.7198 200.482 99.0798 200.702 99.3698C200.812 99.5098 200.902 99.6298 200.982 99.7298C201.022 99.7798 201.052 99.8198 201.082 99.8598L201.122 99.9098L201.142 99.9298L201.122 99.9398ZM179.172 115.91C179.172 115.91 179.172 115.9 179.162 115.89L189.992 108.04C182.772 113.273 179.165 115.893 179.172 115.9" fill="#E1E3E1"/>
<path d="M179.172 115.91C179.172 115.91 179.172 115.9 179.162 115.89L189.992 108.04C182.772 113.273 179.165 115.893 179.172 115.9M201.122 99.9398C201.122 99.9398 201.122 99.9498 190.142 107.92L201.132 99.9498C205.532 106.02 204.182 114.51 198.112 118.91C192.072 123.29 183.642 121.97 179.222 115.99C179.222 115.99 179.222 115.99 179.222 115.98C179.182 115.93 179.092 115.81 178.932 115.62C178.622 115.25 178.092 114.64 177.352 113.87C175.842 112.32 173.512 110.18 170.392 108.07C164.212 103.9 155.072 99.8898 142.802 100.55C135.312 100.95 128.922 95.2098 128.522 87.7198C128.122 80.2298 133.862 73.8398 141.352 73.4398C160.752 72.3998 175.652 78.8598 185.592 85.5698C190.532 88.9098 194.282 92.3198 196.842 94.9598C198.122 96.2798 199.122 97.4198 199.842 98.2898C200.202 98.7198 200.482 99.0798 200.702 99.3698C200.812 99.5098 200.902 99.6298 200.982 99.7298C201.022 99.7798 201.052 99.8198 201.082 99.8598L201.122 99.9098L201.142 99.9298L201.122 99.9398Z" stroke="#1F1F1F" stroke-miterlimit="10"/>
<path d="M179.17 115.91C179.17 115.91 179.17 115.9 179.16 115.89L189.99 108.04C182.77 113.273 179.163 115.893 179.17 115.9M190.14 107.92C197.467 102.606 201.127 99.9465 201.12 99.9398L201.1 99.9098L201.06 99.8598C201.06 99.8598 201 99.7798 200.96 99.7298C200.89 99.6298 200.79 99.5098 200.68 99.3698C200.46 99.0898 200.18 98.7298 199.82 98.2898C199.1 97.4298 198.11 96.2898 196.82 94.9598C194.26 92.3198 190.51 88.9098 185.57 85.5698C175.63 78.8598 160.74 72.3998 141.33 73.4398C133.84 73.8398 128.1 80.2298 128.5 87.7198C128.9 95.2098 135.29 100.95 142.78 100.55C155.05 99.8898 164.19 103.9 170.37 108.07C173.49 110.18 175.82 112.31 177.33 113.87C178.08 114.64 178.61 115.25 178.91 115.62C179.06 115.8 179.16 115.93 179.2 115.98C179.2 115.98 179.2 115.98 179.2 115.99C183.62 121.98 192.05 123.29 198.09 118.91C204.16 114.51 205.51 106.02 201.11 99.9498L190.12 107.92H190.14Z" fill="#E1E3E1"/>
<path d="M179.17 115.91C179.17 115.91 179.17 115.9 179.16 115.89L189.99 108.04C182.77 113.273 179.163 115.893 179.17 115.9M190.14 107.92C197.467 102.606 201.127 99.9465 201.12 99.9398L201.1 99.9098L201.06 99.8598C201.06 99.8598 201 99.7798 200.96 99.7298C200.89 99.6298 200.79 99.5098 200.68 99.3698C200.46 99.0898 200.18 98.7298 199.82 98.2898C199.1 97.4298 198.11 96.2898 196.82 94.9598C194.26 92.3198 190.51 88.9098 185.57 85.5698C175.63 78.8598 160.74 72.3998 141.33 73.4398C133.84 73.8398 128.1 80.2298 128.5 87.7198C128.9 95.2098 135.29 100.95 142.78 100.55C155.05 99.8898 164.19 103.9 170.37 108.07C173.49 110.18 175.82 112.31 177.33 113.87C178.08 114.64 178.61 115.25 178.91 115.62C179.06 115.8 179.16 115.93 179.2 115.98C179.2 115.98 179.2 115.98 179.2 115.99C183.62 121.98 192.05 123.29 198.09 118.91C204.16 114.51 205.51 106.02 201.11 99.9498L190.12 107.92H190.14Z" stroke="#1F1F1F" stroke-miterlimit="10"/>
<path fill-rule="evenodd" clip-rule="evenodd" d="M123.971 62.0202C123.971 54.5202 130.051 48.4502 137.541 48.4502C172.981 48.4502 196.331 68.5702 212.341 90.1302C216.811 96.1502 215.561 104.65 209.541 109.12C203.521 113.59 195.021 112.34 190.551 106.32C177.151 88.2802 160.911 75.6002 137.541 75.6002C130.041 75.6002 123.971 69.5202 123.971 62.0302V62.0202Z" fill="#E1E3E1" stroke="#1F1F1F" stroke-miterlimit="10"/>
<path d="M172.56 37.7703C166.04 34.0703 157.75 36.3703 154.06 42.8903C150.36 49.4103 152.66 57.7003 159.18 61.3903C175.75 70.7803 183.91 76.8203 188.73 81.3003C190.23 82.6903 192.53 85.1303 193.58 86.3403C187.36 92.0003 183.67 98.4203 179.53 105.01C176.53 109.79 174.35 114.62 173.22 120.27C170.95 123.41 165.8 124.16 165.3 127.62L182.05 149.87C194.49 167.12 218.49 171.06 235.67 158.67C252.85 146.28 256.69 122.26 244.26 105.01C237.16 95.0703 226.05 82.3103 216.38 71.5203C214 68.4603 211.09 65.0103 207.2 61.4003C200.15 54.8503 189.93 47.6003 172.56 37.7603V37.7703Z" fill="#E1E3E1" stroke="#1F1F1F" stroke-miterlimit="10"/>
<path d="M207.971 2H151.971C146.448 2 141.971 6.47715 141.971 12V144C141.971 149.523 146.448 154 151.971 154H207.971C213.494 154 217.971 149.523 217.971 144V12C217.971 6.47715 213.494 2 207.971 2Z" fill="white" stroke="#1F1F1F" stroke-miterlimit="10"/>
<path d="M163.971 148H195.971" stroke="#1F1F1F" stroke-miterlimit="10" stroke-linecap="round"/>
<path d="M179.971 12C181.075 12 181.971 11.1046 181.971 10C181.971 8.89543 181.075 8 179.971 8C178.866 8 177.971 8.89543 177.971 10C177.971 11.1046 178.866 12 179.971 12Z" fill="#1F1F1F"/>
<path d="M191.541 96.8302L204.801 83.5702C205.551 82.8202 205.971 81.8002 205.971 80.7402V63.2502C205.971 62.1902 205.551 61.1702 204.801 60.4202L191.541 47.1602C190.791 46.4102 189.771 45.9902 188.711 45.9902H171.221C170.161 45.9902 169.141 46.4102 168.391 47.1602L155.131 60.4202C154.381 61.1702 153.961 62.1902 153.961 63.2502V80.7402C153.961 81.8002 154.381 82.8202 155.131 83.5702L168.391 96.8302C169.141 97.5802 170.161 98.0002 171.221 98.0002H188.711C189.771 98.0002 190.791 97.5802 191.541 96.8302Z" fill="#DC362E"/>
<path fill-rule="evenodd" clip-rule="evenodd" d="M181.131 61.5498H178.811V77.0298H181.131V61.5498ZM181.131 80.1298H178.811V82.4498H181.131V80.1298Z" fill="white"/>
<path d="M151.971 52V48C151.971 45.79 153.761 44 155.971 44H159.971" stroke="#1F1F1F" stroke-miterlimit="10" stroke-linecap="round"/>
<path d="M199.971 44H203.971C206.181 44 207.971 45.79 207.971 48V52" stroke="#1F1F1F" stroke-miterlimit="10" stroke-linecap="round"/>
<path d="M207.971 92V96C207.971 98.21 206.181 100 203.971 100H199.971" stroke="#1F1F1F" stroke-miterlimit="10" stroke-linecap="round"/>
<path d="M159.971 100H155.971C153.761 100 151.971 98.21 151.971 96V92" stroke="#1F1F1F" stroke-miterlimit="10" stroke-linecap="round"/>
<path d="M221.931 152.77C221.931 152.77 211.881 142.64 208.981 128.39C206.421 115.89 215.161 103.31 211.201 98.6904C208.091 95.0504 204.931 92.0404 200.301 88.5004C194.481 84.0704 193.331 75.7004 197.721 69.9004C202.121 64.0704 210.421 62.9404 216.261 67.3604C224.481 73.6204 230.821 80.3404 235.681 86.9404C246.411 101.43 250.061 115.32 251.301 122.19" fill="#E1E3E1"/>
<path d="M221.931 152.77C221.931 152.77 211.881 142.64 208.981 128.39C206.421 115.89 215.161 103.31 211.201 98.6904C208.091 95.0504 204.931 92.0404 200.301 88.5004C194.481 84.0704 193.331 75.7004 197.721 69.9004C202.121 64.0704 210.421 62.9404 216.261 67.3604C224.481 73.6204 230.821 80.3404 235.681 86.9404C246.411 101.43 250.061 115.32 251.301 122.19" stroke="#1F1F1F" stroke-miterlimit="10"/>
<path d="M231.881 67.5908C239.521 74.5508 245.251 81.7908 249.521 88.7908C258.941 104.171 261.371 118.311 262.001 125.271" stroke="#1F1F1F" stroke-linecap="round" stroke-linejoin="round"/>
<path d="M149.87 63.6201L141.98 76.0001V64.0001L149.87 63.6201Z" fill="#1F1F1F" stroke="#1F1F1F" stroke-miterlimit="10"/>
<path d="M152 10.0002H96C91.58 10.0002 88 13.5802 88 18.0002V58.0002C88 62.4202 91.58 66.0002 96 66.0002H144C148.42 66.0002 152 62.4202 152 58.0002V37.3102C152 35.1902 152.84 33.1502 154.34 31.6502L173.52 12.4702C174.43 11.5602 173.79 9.99023 172.49 9.99023H151.99L152 10.0002Z" fill="#E1E3E1" stroke="#1F1F1F" stroke-miterlimit="10"/>
<path d="M128 22H104C101.791 22 100 23.7909 100 26V50C100 52.2091 101.791 54 104 54H128C130.209 54 132 52.2091 132 50V26C132 23.7909 130.209 22 128 22Z" fill="white" stroke="#1F1F1F"/>
<path d="M132 34L140 26V50L132 42V34Z" fill="#1F1F1F" stroke="#1F1F1F" stroke-linecap="round" stroke-linejoin="round"/>
<path d="M124 34C126.209 34 128 32.2091 128 30C128 27.7909 126.209 26 124 26C121.791 26 120 27.7909 120 30C120 32.2091 121.791 34 124 34Z" fill="#DC362E"/>
<path d="M112 34C114.209 34 116 32.2091 116 30C116 27.7909 114.209 26 112 26C109.791 26 108 27.7909 108 30C108 32.2091 109.791 34 112 34Z" fill="#E1E3E1"/>
</g>
<defs>
<clipPath id="clip0_5178_72894">
<rect width="360" height="168" fill="white"/>
</clipPath>
</defs>
</svg>
