<svg width="360" height="168" viewBox="0 0 360 168" fill="none" xmlns="http://www.w3.org/2000/svg">
<g clip-path="url(#clip0_5178_72895)">
<path d="M276 24H100C95.5817 24 92 27.5817 92 32V152C92 156.418 95.5817 160 100 160H276C280.418 160 284 156.418 284 152V32C284 27.5817 280.418 24 276 24Z" fill="white" stroke="#1F1F1F" stroke-miterlimit="10"/>
<path d="M272 39C273.657 39 275 37.6569 275 36C275 34.3431 273.657 33 272 33C270.343 33 269 34.3431 269 36C269 37.6569 270.343 39 272 39Z" fill="#DC362E"/>
<path d="M260 39C261.657 39 263 37.6569 263 36C263 34.3431 261.657 33 260 33C258.343 33 257 34.3431 257 36C257 37.6569 258.343 39 260 39Z" fill="#FCBD00"/>
<path d="M148 64V58C148 54.69 150.69 52 154 52H160" stroke="#1F1F1F" stroke-miterlimit="10" stroke-linecap="round"/>
<path d="M216 52H222C225.31 52 228 54.69 228 58V64" stroke="#1F1F1F" stroke-miterlimit="10" stroke-linecap="round"/>
<path d="M228 120V126C228 129.31 225.31 132 222 132H216" stroke="#1F1F1F" stroke-miterlimit="10" stroke-linecap="round"/>
<path d="M160 132H154C150.69 132 148 129.31 148 126V120" stroke="#1F1F1F" stroke-miterlimit="10" stroke-linecap="round"/>
<path d="M248 39C249.657 39 251 37.6569 251 36C251 34.3431 249.657 33 248 33C246.343 33 245 34.3431 245 36C245 37.6569 246.343 39 248 39Z" fill="#6DD58C"/>
<path d="M178.25 61.5803C182.59 54.1503 193.41 54.1503 197.76 61.5803L222.08 103.2C226.44 110.66 221.01 120 212.33 120H163.69C155 120 149.58 110.66 153.94 103.2L178.26 61.5803H178.25Z" fill="#FCBD00"/>
<path fill-rule="evenodd" clip-rule="evenodd" d="M189.549 74.5801H186.449V95.2301H189.549V74.5801ZM189.549 99.3501H186.449V102.45H189.549V99.3501Z" fill="#1F1F1F"/>
<path d="M128 85.5801L91.6699 122L91.9999 85.8901L128 85.5801Z" fill="#1F1F1F"/>
<path d="M120 8H64C57.3726 8 52 13.3726 52 20V76C52 82.6274 57.3726 88 64 88H120C126.627 88 132 82.6274 132 76V20C132 13.3726 126.627 8 120 8Z" fill="#E1E3E1" stroke="#1F1F1F" stroke-miterlimit="10"/>
<path d="M102 24H70C65.5817 24 62 27.5817 62 32V64C62 68.4183 65.5817 72 70 72H102C106.418 72 110 68.4183 110 64V32C110 27.5817 106.418 24 102 24Z" fill="white" stroke="#1F1F1F"/>
<path d="M110 42L122 32V64L110 54V42Z" fill="#1F1F1F" stroke="#1F1F1F" stroke-linecap="round" stroke-linejoin="round"/>
<path d="M99 40C101.761 40 104 37.7614 104 35C104 32.2386 101.761 30 99 30C96.2386 30 94 32.2386 94 35C94 37.7614 96.2386 40 99 40Z" fill="#DC362E"/>
<path d="M83 40C85.7614 40 88 37.7614 88 35C88 32.2386 85.7614 30 83 30C80.2386 30 78 32.2386 78 35C78 37.7614 80.2386 40 83 40Z" fill="#1F1F1F"/>
<path d="M64 100H60C48.95 100 40 91.05 40 80V48" stroke="#1F1F1F" stroke-miterlimit="10" stroke-linecap="round"/>
<path d="M272 12H280C288.84 12 296 19.16 296 28V72" stroke="#1F1F1F" stroke-miterlimit="10" stroke-linecap="round"/>
</g>
<defs>
<clipPath id="clip0_5178_72895">
<rect width="360" height="168" fill="white"/>
</clipPath>
</defs>
</svg>
