<svg width="360" height="168" viewBox="0 0 360 168" fill="none" xmlns="http://www.w3.org/2000/svg">
<g clip-path="url(#clip0_3236_60144)">
<path d="M343.391 57.4962L308.617 48.1787L297.229 90.6794L332.002 99.9969L343.391 57.4962Z" fill="white" stroke="#1F1F1F" stroke-linecap="round" stroke-linejoin="round"/>
<path d="M332 44H284V100H332V44Z" fill="white" stroke="#1F1F1F" stroke-linecap="round" stroke-linejoin="round"/>
<path d="M326 50H290V88H326V50Z" fill="#E1E3E1" stroke="#1F1F1F" stroke-miterlimit="10"/>
<path d="M224 16H128C119.163 16 112 23.1634 112 32V128C112 136.837 119.163 144 128 144H224C232.837 144 240 136.837 240 128V32C240 23.1634 232.837 16 224 16Z" fill="white" stroke="#1F1F1F"/>
<path d="M240 64L272 32V128L240 96V64Z" fill="#1F1F1F" stroke="#1F1F1F" stroke-linecap="round" stroke-linejoin="round"/>
<path d="M176 56C182.627 56 188 50.6274 188 44C188 37.3726 182.627 32 176 32C169.373 32 164 37.3726 164 44C164 50.6274 169.373 56 176 56Z" fill="#1F1F1F" stroke="#1F1F1F" stroke-linejoin="round"/>
<path d="M182 54H170V64H182V54Z" fill="#0B57D0" stroke="#1F1F1F" stroke-miterlimit="10"/>
<path d="M176 120C191.464 120 204 107.464 204 92C204 76.536 191.464 64 176 64C160.536 64 148 76.536 148 92C148 107.464 160.536 120 176 120Z" fill="white" stroke="#1F1F1F" stroke-linejoin="round"/>
<path d="M197 92C197 103.6 187.6 113 176 113C164.4 113 155 103.6 155 92H197Z" fill="white" stroke="#1F1F1F" stroke-linejoin="round"/>
<path d="M172.5 79.75H179.5L176 86.75" fill="white"/>
<path d="M172.5 79.75H179.5L176 86.75" stroke="#1F1F1F" stroke-linecap="round" stroke-linejoin="round"/>
<mask id="mask0_3236_60144" style="mask-type:luminance" maskUnits="userSpaceOnUse" x="148" y="64" width="56" height="56">
<path d="M176 120C191.464 120 204 107.464 204 92C204 76.536 191.464 64 176 64C160.536 64 148 76.536 148 92C148 107.464 160.536 120 176 120Z" fill="white"/>
</mask>
<g mask="url(#mask0_3236_60144)">
<path fill-rule="evenodd" clip-rule="evenodd" d="M176 68.906C172.758 76.3196 165.359 81.5 156.75 81.5C145.152 81.5 135.75 72.098 135.75 60.5C135.75 48.902 145.152 39.5 156.75 39.5C165.359 39.5 172.758 44.6804 176 52.094C179.242 44.6804 186.641 39.5 195.25 39.5C206.848 39.5 216.25 48.902 216.25 60.5C216.25 72.098 206.848 81.5 195.25 81.5C186.641 81.5 179.242 76.3196 176 68.906Z" fill="#1F1F1F"/>
</g>
<path d="M220 44C224.418 44 228 40.4183 228 36C228 31.5817 224.418 28 220 28C215.582 28 212 31.5817 212 36C212 40.4183 215.582 44 220 44Z" fill="#DC362E"/>
<path d="M216 128H136C127.87 128 121.16 134.07 120.15 141.93C122.47 143.24 125.15 144 128 144H224C226.86 144 229.53 143.24 231.85 141.93C230.83 134.07 224.13 128 216 128Z" fill="#FCBD00" stroke="#1F1F1F"/>
<path d="M216 152H224C237.25 152 248 141.25 248 128V120" stroke="#1F1F1F" stroke-linecap="round" stroke-linejoin="round"/>
<path d="M124.75 83.25L112 96V72L124.75 83.25Z" fill="#1F1F1F"/>
<path d="M103.139 25.7299C105.969 23.4299 110.019 23.4299 112.849 25.7299C114.549 27.1099 116.759 27.7099 118.929 27.3599C122.529 26.7799 126.039 28.8099 127.339 32.2199C128.119 34.2699 129.739 35.8899 131.789 36.6699C135.199 37.9699 137.219 41.4799 136.649 45.0799C136.299 47.2399 136.889 49.4599 138.279 51.1599C140.579 53.9899 140.579 58.0399 138.279 60.8699C136.899 62.5699 136.299 64.7799 136.649 66.9499C137.229 70.5499 135.199 74.0599 131.789 75.3599C129.739 76.1399 128.119 77.7599 127.339 79.8099C126.039 83.2199 122.529 85.2399 118.929 84.6699C116.769 84.3199 114.549 84.9099 112.849 86.2999C110.019 88.5999 105.969 88.5999 103.139 86.2999C101.439 84.9199 99.2294 84.3199 97.0594 84.6699C93.4594 85.2499 89.9494 83.2199 88.6494 79.8099C87.8694 77.7599 86.2494 76.1399 84.1994 75.3599C80.7894 74.0599 78.7694 70.5499 79.3394 66.9499C79.6894 64.7799 79.0994 62.5699 77.7094 60.8699C75.4094 58.0399 75.4094 53.9899 77.7094 51.1599C79.0894 49.4599 79.6894 47.2499 79.3394 45.0799C78.7594 41.4799 80.7894 37.9699 84.1994 36.6699C86.2494 35.8899 87.8694 34.2699 88.6494 32.2199C89.9494 28.8099 93.4594 26.7899 97.0594 27.3599C99.2294 27.7099 101.439 27.1199 103.139 25.7299Z" fill="#6DD58C"/>
<path d="M96.3594 63.2699C96.3594 56.8399 101.569 51.6299 107.999 51.6299C114.429 51.6299 119.639 56.8399 119.639 63.2699V74.9099H96.3694V63.2699H96.3594Z" fill="#1F1F1F"/>
<path d="M108 48.7298C111.21 48.7298 113.82 46.1298 113.82 42.9098C113.82 39.6898 111.22 37.0898 108 37.0898C104.78 37.0898 102.18 39.6898 102.18 42.9098C102.18 46.1298 104.78 48.7298 108 48.7298Z" fill="#1F1F1F"/>
<path d="M94 112H50C46.6863 112 44 114.686 44 118V146C44 149.314 46.6863 152 50 152H94C97.3137 152 100 149.314 100 146V118C100 114.686 97.3137 112 94 112Z" fill="#E1E3E1" stroke="#1F1F1F" stroke-linejoin="round"/>
<path d="M64 125.06V138.95C64 140.48 65.41 141.47 66.61 140.79L78.99 133.75C80.33 132.99 80.33 131.03 78.99 130.26L66.61 123.22C65.41 122.54 64 123.53 64 125.06Z" fill="white" stroke="#1F1F1F" stroke-linecap="round" stroke-linejoin="round"/>
<path d="M36 136V148C36 154.63 41.37 160 48 160H60" stroke="#1F1F1F" stroke-linecap="round" stroke-linejoin="round"/>
</g>
<defs>
<clipPath id="clip0_3236_60144">
<rect width="360" height="168" fill="white"/>
</clipPath>
</defs>
</svg>
