<svg width="360" height="168" viewBox="0 0 360 168" fill="none" xmlns="http://www.w3.org/2000/svg">
<g clip-path="url(#clip0_4105_56113)">
<path d="M228 20H132C123.163 20 116 27.1634 116 36V132C116 140.837 123.163 148 132 148H228C236.837 148 244 140.837 244 132V36C244 27.1634 236.837 20 228 20Z" fill="white" stroke="#1F1F1F"/>
<path d="M244 68L276 36V132L244 100V68Z" fill="#1F1F1F" stroke="#1F1F1F" stroke-linecap="round" stroke-linejoin="round"/>
<path d="M141.5 95.3L116 122L115.93 94L141.5 95.3Z" fill="#1F1F1F"/>
<path d="M220 156H228C241.25 156 252 145.25 252 132V124" stroke="#1F1F1F" stroke-linecap="round" stroke-linejoin="round"/>
<path d="M108 12V28" stroke="#1F1F1F" stroke-linecap="round" stroke-linejoin="round"/>
<path d="M108 124V108" stroke="#1F1F1F" stroke-linecap="round" stroke-linejoin="round"/>
<path d="M284 52V116" stroke="#1F1F1F" stroke-linecap="round" stroke-linejoin="round"/>
<path d="M128 48V40C128 35.58 131.58 32 136 32H144" stroke="#1F1F1F" stroke-miterlimit="10" stroke-linecap="round"/>
<path d="M216 32H224C228.42 32 232 35.58 232 40V48" stroke="#1F1F1F" stroke-miterlimit="10" stroke-linecap="round"/>
<path d="M232 120V128C232 132.42 228.42 136 224 136H216" stroke="#1F1F1F" stroke-miterlimit="10" stroke-linecap="round"/>
<path d="M144 136H136C131.58 136 128 132.42 128 128V120" stroke="#1F1F1F" stroke-miterlimit="10" stroke-linecap="round"/>
<path d="M68.4004 28.4004L79.7204 39.7204" stroke="#1F1F1F" stroke-linecap="round" stroke-linejoin="round"/>
<path d="M52 68H68" stroke="#1F1F1F" stroke-linecap="round" stroke-linejoin="round"/>
<path d="M68.4004 107.6L79.7204 96.2803" stroke="#1F1F1F" stroke-linecap="round" stroke-linejoin="round"/>
<path d="M98.2497 41.5803C102.59 34.1503 113.41 34.1503 117.76 41.5803L142.08 83.2003C146.44 90.6603 141.01 100 132.33 100H83.6898C74.9998 100 69.5798 90.6603 73.9398 83.2003L98.2598 41.5803H98.2497Z" fill="#FCBD00"/>
<path fill-rule="evenodd" clip-rule="evenodd" d="M109.549 54.5801H106.449V75.2301H109.549V54.5801ZM109.549 79.3501H106.449V82.4501H109.549V79.3501Z" fill="#1F1F1F"/>
<path d="M152 84H196" stroke="#1F1F1F" stroke-miterlimit="10" stroke-linecap="round"/>
<path d="M172 60L196 84L172 108" stroke="#1F1F1F" stroke-linecap="round" stroke-linejoin="round"/>
<path d="M192 52H204C206.21 52 208 53.79 208 56V112C208 114.21 206.21 116 204 116H192" stroke="#1F1F1F" stroke-miterlimit="10" stroke-linecap="round"/>
</g>
<defs>
<clipPath id="clip0_4105_56113">
<rect width="360" height="168" fill="white"/>
</clipPath>
</defs>
</svg>
