<svg width="360" height="168" viewBox="0 0 360 168" fill="none" xmlns="http://www.w3.org/2000/svg">
<g clip-path="url(#clip0_5117_73932)">
<path d="M189.891 115.911C185.711 118.811 177.931 124.751 171.401 121.071C164.871 117.391 162.561 109.111 166.241 102.581C170.681 94.6905 177.141 89.0505 185.491 87.2805C193.301 85.6205 200.281 87.9005 205.051 90.2705C211.121 93.2805 216.721 97.7505 221.161 102.881L213.831 122.721C213.461 123.461 199.121 121.591 195.731 116.501C194.571 114.761 192.061 114.401 189.891 115.911Z" fill="#E1E3E1" stroke="#1F1F1F" stroke-miterlimit="10"/>
<path fill-rule="evenodd" clip-rule="evenodd" d="M235.122 93.9398C235.122 93.9398 235.122 93.9498 224.142 101.92L235.132 93.9498C239.532 100.02 238.182 108.51 232.112 112.91C226.072 117.29 217.642 115.97 213.222 109.99C213.222 109.99 213.222 109.99 213.222 109.98C213.182 109.93 213.092 109.81 212.932 109.62C212.622 109.25 212.092 108.64 211.352 107.87C209.842 106.32 207.512 104.18 204.392 102.07C198.212 97.8998 189.072 93.8898 176.802 94.5498C169.312 94.9498 162.922 89.2098 162.522 81.7198C162.122 74.2298 167.862 67.8398 175.352 67.4398C194.752 66.3998 209.652 72.8598 219.592 79.5698C224.532 82.9098 228.282 86.3198 230.842 88.9598C232.122 90.2798 233.122 91.4198 233.842 92.2898C234.202 92.7198 234.482 93.0798 234.702 93.3698C234.812 93.5098 234.902 93.6298 234.982 93.7298C235.022 93.7798 235.052 93.8198 235.082 93.8598L235.122 93.9098L235.142 93.9298L235.122 93.9398ZM213.172 109.91C213.172 109.91 213.172 109.9 213.162 109.89L223.992 102.04C216.772 107.273 213.165 109.893 213.172 109.9" fill="#E1E3E1"/>
<path d="M213.172 109.91C213.172 109.91 213.172 109.9 213.162 109.89L223.992 102.04C216.772 107.273 213.165 109.893 213.172 109.9M235.122 93.9398C235.122 93.9398 235.122 93.9498 224.142 101.92L235.132 93.9498C239.532 100.02 238.182 108.51 232.112 112.91C226.072 117.29 217.642 115.97 213.222 109.99C213.222 109.99 213.222 109.99 213.222 109.98C213.182 109.93 213.092 109.81 212.932 109.62C212.622 109.25 212.092 108.64 211.352 107.87C209.842 106.32 207.512 104.18 204.392 102.07C198.212 97.8998 189.072 93.8898 176.802 94.5498C169.312 94.9498 162.922 89.2098 162.522 81.7198C162.122 74.2298 167.862 67.8398 175.352 67.4398C194.752 66.3998 209.652 72.8598 219.592 79.5698C224.532 82.9098 228.282 86.3198 230.842 88.9598C232.122 90.2798 233.122 91.4198 233.842 92.2898C234.202 92.7198 234.482 93.0798 234.702 93.3698C234.812 93.5098 234.902 93.6298 234.982 93.7298C235.022 93.7798 235.052 93.8198 235.082 93.8598L235.122 93.9098L235.142 93.9298L235.122 93.9398Z" stroke="#1F1F1F" stroke-miterlimit="10"/>
<path d="M213.17 109.91C213.17 109.91 213.17 109.9 213.16 109.89L223.99 102.04C216.77 107.273 213.163 109.893 213.17 109.9M224.14 101.92C231.467 96.6065 235.127 93.9465 235.12 93.9398L235.1 93.9098L235.06 93.8598C235.06 93.8598 235 93.7798 234.96 93.7298C234.89 93.6298 234.79 93.5098 234.68 93.3698C234.46 93.0898 234.18 92.7298 233.82 92.2898C233.1 91.4298 232.11 90.2898 230.82 88.9598C228.26 86.3198 224.51 82.9098 219.57 79.5698C209.63 72.8598 194.74 66.3998 175.33 67.4398C167.84 67.8398 162.1 74.2298 162.5 81.7198C162.9 89.2098 169.29 94.9498 176.78 94.5498C189.05 93.8898 198.19 97.8998 204.37 102.07C207.49 104.18 209.82 106.31 211.33 107.87C212.08 108.64 212.61 109.25 212.91 109.62C213.06 109.8 213.16 109.93 213.2 109.98C213.2 109.98 213.2 109.98 213.2 109.99C217.62 115.98 226.05 117.29 232.09 112.91C238.16 108.51 239.51 100.02 235.11 93.9498L224.12 101.92H224.14Z" fill="#E1E3E1"/>
<path d="M213.17 109.91C213.17 109.91 213.17 109.9 213.16 109.89L223.99 102.04C216.77 107.273 213.163 109.893 213.17 109.9M224.14 101.92C231.467 96.6065 235.127 93.9465 235.12 93.9398L235.1 93.9098L235.06 93.8598C235.06 93.8598 235 93.7798 234.96 93.7298C234.89 93.6298 234.79 93.5098 234.68 93.3698C234.46 93.0898 234.18 92.7298 233.82 92.2898C233.1 91.4298 232.11 90.2898 230.82 88.9598C228.26 86.3198 224.51 82.9098 219.57 79.5698C209.63 72.8598 194.74 66.3998 175.33 67.4398C167.84 67.8398 162.1 74.2298 162.5 81.7198C162.9 89.2098 169.29 94.9498 176.78 94.5498C189.05 93.8898 198.19 97.8998 204.37 102.07C207.49 104.18 209.82 106.31 211.33 107.87C212.08 108.64 212.61 109.25 212.91 109.62C213.06 109.8 213.16 109.93 213.2 109.98C213.2 109.98 213.2 109.98 213.2 109.99C217.62 115.98 226.05 117.29 232.09 112.91C238.16 108.51 239.51 100.02 235.11 93.9498L224.12 101.92H224.14Z" stroke="#1F1F1F" stroke-miterlimit="10"/>
<path fill-rule="evenodd" clip-rule="evenodd" d="M157.971 56.0202C157.971 48.5202 164.051 42.4502 171.541 42.4502C206.981 42.4502 230.331 62.5702 246.341 84.1302C250.811 90.1502 249.561 98.6502 243.541 103.12C237.521 107.59 229.021 106.34 224.551 100.32C211.151 82.2802 194.911 69.6002 171.541 69.6002C164.041 69.6002 157.971 63.5202 157.971 56.0302V56.0202Z" fill="#E1E3E1" stroke="#1F1F1F" stroke-miterlimit="10"/>
<path d="M206.56 31.7703C200.04 28.0703 191.75 30.3703 188.06 36.8903C184.36 43.4103 186.66 51.7003 193.18 55.3903C209.75 64.7803 217.91 70.8203 222.73 75.3003C224.23 76.6903 226.53 79.1303 227.58 80.3403C221.36 86.0003 217.67 92.4203 213.53 99.0103C210.53 103.79 208.35 108.62 207.22 114.27C204.95 117.41 199.8 118.16 199.3 121.62L216.05 143.87C228.49 161.12 252.49 165.06 269.67 152.67C286.85 140.28 290.69 116.26 278.26 99.0103C271.16 89.0703 260.05 76.3103 250.38 65.5203C248 62.4603 245.09 59.0103 241.2 55.4003C234.15 48.8503 223.93 41.6003 206.56 31.7603V31.7703Z" fill="#E1E3E1" stroke="#1F1F1F" stroke-miterlimit="10"/>
<path d="M212 8H124C110.745 8 100 18.7452 100 32V120C100 133.255 110.745 144 124 144H212C225.255 144 236 133.255 236 120V32C236 18.7452 225.255 8 212 8Z" fill="white" stroke="#1F1F1F"/>
<mask id="mask0_5117_73932" style="mask-type:luminance" maskUnits="userSpaceOnUse" x="100" y="8" width="136" height="136">
<path d="M212 8H124C110.745 8 100 18.7452 100 32V120C100 133.255 110.745 144 124 144H212C225.255 144 236 133.255 236 120V32C236 18.7452 225.255 8 212 8Z" fill="white"/>
</mask>
<g mask="url(#mask0_5117_73932)">
<path d="M124 120H212C220.83 120 228 127.17 228 136V144H108V136C108 127.17 115.17 120 124 120Z" fill="#FCBD00" stroke="#1F1F1F"/>
</g>
<path d="M212 8H124C110.745 8 100 18.7452 100 32V120C100 133.255 110.745 144 124 144H212C225.255 144 236 133.255 236 120V32C236 18.7452 225.255 8 212 8Z" stroke="#1F1F1F"/>
<path d="M168 42.18C175.23 42.18 181.09 36.3194 181.09 29.09C181.09 21.8606 175.23 16 168 16C160.771 16 154.91 21.8606 154.91 29.09C154.91 36.3194 160.771 42.18 168 42.18Z" fill="#1F1F1F" stroke="#1F1F1F" stroke-linejoin="round"/>
<path d="M174.539 40H161.449V50.91H174.539V40Z" fill="#0B57D0" stroke="#1F1F1F" stroke-miterlimit="10"/>
<path d="M198.549 81.4504C198.549 98.3204 184.869 112 167.999 112C151.129 112 137.449 98.3204 137.449 81.4504C137.449 64.5804 151.129 50.9004 167.999 50.9004C184.869 50.9004 198.549 64.5804 198.549 81.4504Z" fill="white" stroke="#1F1F1F" stroke-linejoin="round"/>
<path d="M190.91 81.4502C190.91 94.1002 180.65 104.36 168 104.36C155.35 104.36 145.09 94.1002 145.09 81.4502H190.91Z" fill="white" stroke="#1F1F1F" stroke-linejoin="round"/>
<path d="M164.18 68.0898H171.82L168 75.7299" fill="white"/>
<path d="M164.18 68.0898H171.82L168 75.7299" stroke="#1F1F1F" stroke-linecap="round" stroke-linejoin="round"/>
<mask id="mask1_5117_73932" style="mask-type:luminance" maskUnits="userSpaceOnUse" x="137" y="50" width="62" height="62">
<path d="M198.549 81.4504C198.549 98.3204 184.869 112 167.999 112C151.129 112 137.449 98.3204 137.449 81.4504C137.449 64.5804 151.129 50.9004 167.999 50.9004C184.869 50.9004 198.549 64.5804 198.549 81.4504Z" fill="white"/>
</mask>
<g mask="url(#mask1_5117_73932)">
<path fill-rule="evenodd" clip-rule="evenodd" d="M167.999 56.262C164.461 64.3485 156.389 70.0007 147 70.0007C134.35 70.0007 124.09 59.7407 124.09 47.0907C124.09 34.4407 134.35 24.1807 147 24.1807C156.389 24.1807 164.461 29.8329 167.999 37.9193C171.536 29.8319 179.608 24.1807 189 24.1807C201.653 24.1807 211.91 34.4378 211.91 47.0907C211.91 59.7435 201.653 70.0007 189 70.0007C179.608 70.0007 171.536 64.3495 167.999 56.262Z" fill="#1F1F1F"/>
</g>
<path d="M116 40V32C116 27.58 119.58 24 124 24H132" stroke="#1F1F1F" stroke-linecap="round" stroke-linejoin="round"/>
<path d="M204 24H212C216.42 24 220 27.58 220 32V40" stroke="#1F1F1F" stroke-linecap="round" stroke-linejoin="round"/>
<path d="M220 112V120C220 124.42 216.42 128 212 128H204" stroke="#1F1F1F" stroke-linecap="round" stroke-linejoin="round"/>
<path d="M132 128H124C119.58 128 116 124.42 116 120V112" stroke="#1F1F1F" stroke-linecap="round" stroke-linejoin="round"/>
<path d="M114 97.38L100 111.38V96H112L114 97.38Z" fill="#1F1F1F" stroke="#1F1F1F" stroke-linecap="round" stroke-linejoin="round"/>
<path d="M108 52H76C71.5817 52 68 55.5817 68 60V92C68 96.4183 71.5817 100 76 100H108C112.418 100 116 96.4183 116 92V60C116 55.5817 112.418 52 108 52Z" fill="#E1E3E1" stroke="#1F1F1F" stroke-linejoin="round"/>
<path d="M116 70L128 60V92L116 82V70Z" fill="#1F1F1F" stroke="#1F1F1F" stroke-linecap="round" stroke-linejoin="round"/>
<path d="M105 68C107.761 68 110 65.7614 110 63C110 60.2386 107.761 58 105 58C102.239 58 100 60.2386 100 63C100 65.7614 102.239 68 105 68Z" fill="#DC362E"/>
<path d="M89 68C91.7614 68 94 65.7614 94 63C94 60.2386 91.7614 58 89 58C86.2386 58 84 60.2386 84 63C84 65.7614 86.2386 68 89 68Z" fill="#1F1F1F"/>
<path d="M255.931 146.77C255.931 146.77 245.881 136.64 242.981 122.39C240.421 109.89 249.161 97.3104 245.201 92.6904C242.091 89.0504 238.931 86.0404 234.301 82.5004C228.481 78.0704 227.331 69.7004 231.721 63.9004C236.121 58.0704 244.421 56.9404 250.261 61.3604C258.481 67.6204 264.821 74.3404 269.681 80.9404C280.411 95.4304 284.061 109.32 285.301 116.19" fill="#E1E3E1"/>
<path d="M255.931 146.77C255.931 146.77 245.881 136.64 242.981 122.39C240.421 109.89 249.161 97.3104 245.201 92.6904C242.091 89.0504 238.931 86.0404 234.301 82.5004C228.481 78.0704 227.331 69.7004 231.721 63.9004C236.121 58.0704 244.421 56.9404 250.261 61.3604C258.481 67.6204 264.821 74.3404 269.681 80.9404C280.411 95.4304 284.061 109.32 285.301 116.19" stroke="#1F1F1F" stroke-linecap="round" stroke-linejoin="round"/>
<path d="M265.881 61.5908C273.521 68.5508 279.251 75.7908 283.521 82.7908C292.941 98.1708 295.371 112.311 296.001 119.271" stroke="#1F1F1F" stroke-linecap="round" stroke-linejoin="round"/>
</g>
<defs>
<clipPath id="clip0_5117_73932">
<rect width="360" height="168" fill="white"/>
</clipPath>
</defs>
</svg>
