<svg width="360" height="168" viewBox="0 0 360 168" fill="none" xmlns="http://www.w3.org/2000/svg"><g clip-path="url(#a)"><path d="M218 60a2 2 0 0 1 2 2v24a2 2 0 0 1-2 2V60zM218 36a2 2 0 0 1 2 2v12a2 2 0 0 1-2 2V36z" fill="#1F1F1F" stroke="#1F1F1F" stroke-miterlimit="10"/><path d="M155.888 121.906c-4.177 2.895-11.957 8.842-18.489 5.162-6.531-3.679-8.842-11.957-5.162-18.488 4.443-7.886 10.897-13.527 19.253-15.298 7.811-1.656 14.792.625 19.56 2.988 6.068 3.008 11.668 7.478 16.108 12.607l-7.327 19.838c-.372.744-14.705-1.132-18.098-6.222-1.159-1.737-3.67-2.095-5.845-.587z" fill="#fff" stroke="#1F1F1F" stroke-miterlimit="10"/><path fill-rule="evenodd" clip-rule="evenodd" d="M201.124 99.943c.003.004-3.658 2.663-10.982 7.978l10.989-7.967c4.401 6.069 3.048 14.556-3.022 18.956-6.037 4.377-14.466 3.062-18.886-2.925a44.404 44.404 0 0 0-8.838-7.915c-6.177-4.172-15.323-8.178-27.59-7.521-7.485.401-13.879-5.342-14.28-12.828-.401-7.486 5.342-13.88 12.828-14.28 19.405-1.04 34.296 5.418 44.237 12.133a71.52 71.52 0 0 1 11.245 9.386 57.758 57.758 0 0 1 2.998 3.327 40.974 40.974 0 0 1 1.138 1.436l.098.132.04.054.017.023.008.01zm-21.957 15.965l-.013-.019 10.831-7.853c-7.221 5.235-10.829 7.856-10.824 7.863" fill="#fff"/><path d="M179.167 115.908l-.013-.019 10.831-7.853c-7.221 5.235-10.829 7.856-10.824 7.863m21.963-15.956c.003.004-3.658 2.663-10.982 7.978l10.989-7.967c4.401 6.069 3.048 14.556-3.022 18.956-6.037 4.377-14.466 3.062-18.886-2.925a44.404 44.404 0 0 0-8.838-7.915c-6.177-4.172-15.323-8.178-27.59-7.521-7.485.401-13.879-5.342-14.28-12.828-.401-7.486 5.342-13.88 12.828-14.28 19.405-1.04 34.296 5.418 44.237 12.133a71.52 71.52 0 0 1 11.245 9.386 57.758 57.758 0 0 1 2.998 3.327 40.974 40.974 0 0 1 1.138 1.436l.098.132.04.054.017.023.008.01z" stroke="#1F1F1F" stroke-miterlimit="10"/><path d="M179.166 115.907l-.013-.019 10.831-7.853c-7.221 5.235-10.829 7.856-10.824 7.863l.007.01m10.975-7.987c7.326-5.312 10.987-7.971 10.982-7.978l-.008-.011-.017-.023-.04-.054a28.48 28.48 0 0 0-.373-.493 40.974 40.974 0 0 0-.863-1.075 57.758 57.758 0 0 0-2.998-3.327 71.52 71.52 0 0 0-11.245-9.386c-9.941-6.715-24.832-13.172-44.237-12.133-7.486.4-13.229 6.794-12.828 14.28.401 7.486 6.795 13.229 14.28 12.828 12.267-.657 21.413 3.349 27.59 7.521a44.404 44.404 0 0 1 6.959 5.796 30.789 30.789 0 0 1 1.584 1.752 13.046 13.046 0 0 1 .295.367c4.42 5.987 12.849 7.302 18.886 2.925 6.07-4.4 7.423-12.887 3.022-18.956l-10.989 7.967z" fill="#fff"/><path d="M179.166 115.907l-.013-.019 10.831-7.853c-7.221 5.235-10.829 7.856-10.824 7.863l.007.01m10.975-7.987c7.326-5.312 10.987-7.971 10.982-7.978l-.008-.011-.017-.023-.04-.054a28.48 28.48 0 0 0-.373-.493 40.974 40.974 0 0 0-.863-1.075 57.758 57.758 0 0 0-2.998-3.327 71.52 71.52 0 0 0-11.245-9.386c-9.941-6.715-24.832-13.172-44.237-12.133-7.486.4-13.229 6.794-12.828 14.28.401 7.486 6.795 13.229 14.28 12.828 12.267-.657 21.413 3.349 27.59 7.521a44.404 44.404 0 0 1 6.959 5.796 30.789 30.789 0 0 1 1.584 1.752 13.046 13.046 0 0 1 .295.367c4.42 5.987 12.849 7.302 18.886 2.925 6.07-4.4 7.423-12.887 3.022-18.956l-10.989 7.967z" stroke="#1F1F1F" stroke-miterlimit="10"/><path fill-rule="evenodd" clip-rule="evenodd" d="M123.971 62.019c0-7.496 6.077-13.573 13.574-13.573 35.444 0 58.794 20.123 74.804 41.675 4.471 6.018 3.216 14.52-2.802 18.99-6.017 4.471-14.52 3.216-18.99-2.801-13.399-18.038-29.639-30.717-53.012-30.717-7.497 0-13.574-6.077-13.574-13.574z" fill="#fff" stroke="#1F1F1F" stroke-miterlimit="10"/><path d="M172.556 37.767c-6.522-3.696-14.806-1.405-18.501 5.117-3.696 6.522-1.405 14.805 5.117 18.5 16.568 9.389 24.726 15.432 29.551 19.912 1.496 1.389 3.8 3.834 4.853 5.04-6.221 5.657-9.908 12.076-14.05 18.67-3 4.775-5.179 9.609-6.31 15.265-2.27 3.14-7.424 3.894-7.918 7.352l16.752 22.246c12.437 17.248 36.443 21.188 53.622 8.801 17.178-12.386 21.022-36.408 8.586-53.656-7.095-9.941-18.211-22.697-27.877-33.488-2.375-3.06-5.293-6.51-9.185-10.123-7.052-6.548-17.274-13.795-34.64-23.636z" fill="#fff" stroke="#1F1F1F" stroke-miterlimit="10"/><path d="M207.971 2h-56c-5.523 0-10 4.477-10 10v132c0 5.523 4.477 10 10 10h56c5.523 0 10-4.477 10-10V12c0-5.523-4.477-10-10-10z" fill="#fff" stroke="#1F1F1F" stroke-miterlimit="10"/><path d="M163.971 150h32" stroke="#1F1F1F" stroke-miterlimit="10" stroke-linecap="round"/><path d="M151.971 2h56c5.519 0 10 4.481 10 10v2h-76v-2c0-5.519 4.481-10 10-10zM141.971 112h76v32c0 5.519-4.481 10-10 10h-56c-5.519 0-10-4.481-10-10v-32z" fill="#fff" stroke="#1F1F1F" stroke-miterlimit="10"/><path d="M179.971 141a8 8 0 1 0 0-16 8 8 0 0 0 0 16zM179.971 10a2 2 0 1 0 0-4 2 2 0 0 0 0 4z" fill="#1F1F1F"/><path d="M191.543 88.828L204.8 75.571a4.001 4.001 0 0 0 1.172-2.828V55.257a3.995 3.995 0 0 0-1.172-2.828l-13.257-13.257A4.001 4.001 0 0 0 188.715 38h-17.486a3.995 3.995 0 0 0-2.828 1.172l-13.257 13.257a4.001 4.001 0 0 0-1.172 2.828v17.486c0 1.061.421 2.078 1.172 2.828l13.257 13.257A4.001 4.001 0 0 0 171.229 90h17.486a3.995 3.995 0 0 0 2.828-1.172z" fill="#DC362E"/><path d="M221.931 152.773s-10.054-10.134-12.949-24.377c-2.559-12.5 6.177-25.076 2.217-29.698-3.114-3.642-6.27-6.652-10.901-10.188-5.822-4.43-6.969-12.804-2.579-18.604 4.402-5.828 12.698-6.96 18.541-2.538 8.22 6.262 14.563 12.982 19.421 19.582 10.729 14.494 14.383 28.376 15.617 35.248" fill="#fff"/><path d="M221.931 152.773s-10.054-10.134-12.949-24.377c-2.559-12.5 6.177-25.076 2.217-29.698-3.114-3.642-6.27-6.652-10.901-10.188-5.822-4.43-6.969-12.804-2.579-18.604 4.402-5.828 12.698-6.96 18.541-2.538 8.22 6.262 14.563 12.982 19.421 19.582 10.729 14.494 14.383 28.376 15.617 35.248M231.884 67.586c7.642 6.956 13.374 14.204 17.637 21.203 9.422 15.376 11.85 29.524 12.479 36.477" stroke="#1F1F1F" stroke-linecap="round" stroke-linejoin="round"/><path fill-rule="evenodd" clip-rule="evenodd" d="M181.132 53.548h-2.323v15.484h2.323V53.548zm0 18.58h-2.323v2.324h2.323v-2.323z" fill="#fff"/></g><defs><clipPath id="a"><path fill="#fff" d="M0 0h360v168H0z"/></clipPath></defs></svg>