<svg xmlns="http://www.w3.org/2000/svg" viewBox="0 0 1280 200"><g clip-path="url(#a)"><path fill="url(#b)" fill-opacity=".2" d="M-21.5 0h1301v275h-1301z"/><path fill="#9FC5E9" fill-opacity=".1" d="M1048.1 301.6a21.5 21.5 0 0 1-31.3-20.1l5.5-118.8c.8-16.5 19.2-26 33-17l100.2 64.1c14 9 13 29.6-1.7 37.2z"/><rect width="132.5" height="132.5" x="1325" y="60.2" fill="#FFDF92" fill-opacity=".2" rx="25" transform="rotate(145.5 1325 60.2)"/><path fill="#FF92FB" fill-opacity=".1" d="M853.6 55.4A32 32 0 0 1 865.4-3l4.8-.8A32 32 0 0 0 891.4-18l2.6-4a32 32 0 0 1 58.4 11.8l.9 4.8a32 32 0 0 0 14 21.2l4 2.6A32 32 0 0 1 959.6 77l-4.7.9a32 32 0 0 0-21.3 14l-2.6 4A32 32 0 0 1 872.5 84l-.8-4.7A32 32 0 0 0 857.6 58z"/><path fill="#FF8A64" fill-opacity=".1" d="M612 45.2a65 65 0 0 1 0-91l21.2-21.4c24.7-25 65-25 89.7 0s24.8 65.9 0 91l-21 21.4a63 63 0 0 1-89.8 0"/></g><defs><linearGradient id="b" x1="-21.5" x2="1189.2" y1="0" y2="384.7" gradientUnits="userSpaceOnUse"><stop stop-color="#0B57D0" stop-opacity=".8"/><stop offset=".3" stop-color="#A9D1E9"/><stop offset="1" stop-color="#FDF6E5"/></linearGradient><clipPath id="a"><path fill="#fff" d="M-.5 0h1281v200H-.5z"/></clipPath></defs></svg>
